<svg width="300" height="100" viewBox="0 0 300 100" fill="none" xmlns="http://www.w3.org/2000/svg">
<path d="M36.2695 22.3481H49.1235C49.7681 22.3481 50.4932 22.3555 51.2988 22.3701C52.1191 22.3848 52.9761 22.4287 53.8696 22.502C54.7632 22.5605 55.6714 22.6558 56.5942 22.7876C57.5317 22.9048 58.4399 23.0732 59.3188 23.293C60.1978 23.498 61.0181 23.7617 61.7798 24.084C62.5562 24.3916 63.23 24.7651 63.8013 25.2046C64.3872 25.644 64.8486 26.1641 65.1855 26.7646C65.5225 27.3506 65.6909 28.0244 65.6909 28.7861C65.6909 29.8262 65.4053 30.7563 64.834 31.5767C64.2627 32.397 63.4937 33.1147 62.5269 33.73C61.5747 34.3306 60.4688 34.8433 59.209 35.2681C57.9492 35.6782 56.6309 35.9932 55.2539 36.2129C56.7188 36.4473 58.0078 36.7402 59.1211 37.0918C60.2344 37.4434 61.2012 37.8389 62.0215 38.2783C62.8564 38.7031 63.5522 39.1499 64.1089 39.6187C64.6802 40.0874 65.1489 40.5488 65.5151 41.0029C66.3794 42.0723 66.8701 43.2075 66.9873 44.4087C66.9873 45.7417 66.7456 46.8916 66.2622 47.8584C65.7935 48.8252 65.1562 49.6455 64.3506 50.3193C63.5596 50.9785 62.644 51.5132 61.604 51.9233C60.564 52.3335 59.48 52.6558 58.3521 52.8901C57.2241 53.1099 56.0889 53.2563 54.9463 53.3296C53.8037 53.4028 52.7344 53.4395 51.7383 53.4395C51.2549 53.4395 50.8081 53.4395 50.3979 53.4395C49.9878 53.4541 49.5264 53.4541 49.0137 53.4395C48.501 53.4395 47.8857 53.4321 47.168 53.4175C46.4648 53.4028 45.5786 53.3735 44.5093 53.3296C43.4546 53.3003 42.1729 53.2417 40.6641 53.1538C39.1699 53.0806 37.3608 52.9854 35.2368 52.8682L35.3247 52.3628H41.3892V23.1611H36.2695V22.3481ZM49.3213 36.6304L49.0796 52.6045C49.4604 52.6338 49.8706 52.6484 50.3101 52.6484C50.7642 52.6484 51.2402 52.6484 51.7383 52.6484C52.9248 52.5605 53.9648 52.3555 54.8584 52.0332C55.7666 51.7109 56.521 51.2349 57.1216 50.605C57.7368 49.9604 58.2056 49.1401 58.5278 48.144C58.8647 47.1333 59.0625 45.9028 59.1211 44.4526C59.1211 43.061 58.9673 41.8745 58.6597 40.8931C58.3667 39.897 57.8467 39.084 57.0996 38.4541C56.3525 37.8242 55.3491 37.3628 54.0894 37.0698C52.8296 36.7769 51.2402 36.6304 49.3213 36.6304ZM58.0884 29.1597C58.0737 29.1743 58.0664 29.0425 58.0664 28.7642C58.0664 28.4712 58.0298 28.105 57.9565 27.6655C57.8833 27.2261 57.7515 26.75 57.561 26.2373C57.3706 25.7246 57.0776 25.2485 56.6821 24.8091C56.3013 24.355 55.7959 23.9814 55.166 23.6885C54.5361 23.3955 53.7524 23.249 52.8149 23.249C52.1851 23.249 51.5845 23.2344 51.0132 23.2051C50.4565 23.1758 49.9512 23.1611 49.4971 23.1611L49.3213 35.7295C49.6143 35.7295 49.8999 35.7368 50.1782 35.7515C50.4712 35.7661 50.7495 35.7881 51.0132 35.8174C51.8628 35.8174 52.6831 35.7368 53.4741 35.5757C54.2798 35.4146 55.0049 35.0996 55.6494 34.6309C56.3086 34.1621 56.8506 33.4956 57.2754 32.6313C57.7148 31.7524 57.9858 30.5952 58.0884 29.1597ZM86.7847 53.8569C87.1069 53.8276 87.4146 53.6665 87.7075 53.3735C87.9565 53.1245 88.2129 52.729 88.4766 52.187C88.7402 51.6304 88.96 50.8394 89.1357 49.814L89.9487 49.9019C89.7437 51.1177 89.4653 52.0479 89.1138 52.6924C88.7769 53.3369 88.4326 53.8057 88.0811 54.0986C87.6709 54.4502 87.2388 54.6406 86.7847 54.6699C86.4331 54.6699 85.979 54.6187 85.4224 54.5161C84.8804 54.4136 84.3384 54.2305 83.7964 53.9668C83.2544 53.7178 82.7563 53.3809 82.3022 52.9561C81.8481 52.5312 81.5332 51.9893 81.3574 51.3301C80.7568 52.3408 79.9512 53.1611 78.9404 53.791C77.9297 54.4355 76.7798 54.7578 75.4907 54.7578C74.8462 54.7578 74.1943 54.6846 73.5352 54.5381C72.876 54.3916 72.2681 54.1499 71.7114 53.813C71.1694 53.4761 70.7227 53.0366 70.3711 52.4946C70.0342 51.938 69.8657 51.2495 69.8657 50.4292C69.8657 49.4038 70.0635 48.5176 70.459 47.7705C70.8691 47.0088 71.4111 46.3789 72.085 45.8809C72.7588 45.3682 73.5278 44.9873 74.3921 44.7383C75.2563 44.4893 76.1499 44.3647 77.0728 44.3647C77.7026 44.3647 78.3105 44.438 78.8965 44.5845C79.4971 44.731 80.105 44.9873 80.7202 45.3535C80.7495 44.6064 80.8081 43.8594 80.896 43.1123C80.9985 42.3652 81.0864 41.6694 81.1597 41.0249C81.2036 40.644 81.2329 40.3364 81.2476 40.1021C81.2769 39.8677 81.2988 39.6772 81.3135 39.5308C81.3281 39.3843 81.3354 39.2744 81.3354 39.2012C81.3501 39.1279 81.3574 39.062 81.3574 39.0034C81.3574 37.6704 81.1157 36.6084 80.6323 35.8174C80.1489 35.0264 79.5044 34.6309 78.6987 34.6309C78.3179 34.6602 77.9297 34.7261 77.5342 34.8286C77.1387 34.9312 76.7798 35.0776 76.4575 35.2681C76.1353 35.4438 75.8716 35.6709 75.6665 35.9492C75.4614 36.2129 75.3589 36.5278 75.3589 36.894C75.3589 37.2896 75.4834 37.6045 75.7324 37.8389C75.9814 38.0586 76.2524 38.2856 76.5454 38.52C76.853 38.7397 77.1313 38.9961 77.3804 39.2891C77.6294 39.582 77.7539 39.9849 77.7539 40.4976C77.7539 41.0396 77.666 41.4937 77.4902 41.8599C77.3291 42.2114 77.1094 42.4971 76.8311 42.7168C76.5527 42.9365 76.2378 43.0977 75.8862 43.2002C75.5347 43.2881 75.1831 43.332 74.8315 43.332C74.4653 43.332 74.0991 43.2734 73.7329 43.1562C73.3813 43.0244 73.0591 42.8267 72.7661 42.563C72.4878 42.2993 72.2534 41.9551 72.063 41.5303C71.8872 41.1055 71.7993 40.5928 71.7993 39.9922C71.7993 39.1865 71.9971 38.4175 72.3926 37.6851C72.7881 36.9526 73.3081 36.3081 73.9526 35.7515C74.5972 35.1948 75.3296 34.748 76.1499 34.4111C76.9702 34.0596 77.8052 33.8691 78.6548 33.8398C79.4458 33.8398 80.3027 34.001 81.2256 34.3232C82.1631 34.6455 83.0347 35.1948 83.8403 35.9712C84.6606 36.7476 85.3418 37.7876 85.8838 39.0913C86.4258 40.395 86.6968 42.0283 86.6968 43.9912C86.6968 44.9141 86.6602 45.793 86.5869 46.6279C86.5283 47.4629 86.4624 48.2393 86.3892 48.957C86.3159 49.6602 86.2427 50.3047 86.1694 50.8906C86.1108 51.4766 86.0815 51.9819 86.0815 52.4067C86.0815 52.8315 86.1182 53.1685 86.1914 53.4175C86.2793 53.6665 86.4478 53.813 86.6968 53.8569H86.7847ZM80.9839 50.1655C80.896 49.6675 80.8301 49.1475 80.7861 48.6055C80.7422 48.0488 80.7202 47.4922 80.7202 46.9355V46.3423C80.3101 46.0054 79.8633 45.7563 79.3799 45.5952C78.9111 45.4341 78.4863 45.3535 78.1055 45.3535C77.1826 45.3535 76.4795 45.7344 75.9961 46.4961C75.5127 47.2578 75.271 48.2686 75.271 49.5283C75.271 50.0557 75.3223 50.5464 75.4248 51.0005C75.542 51.4546 75.6958 51.8501 75.8862 52.187C76.0913 52.5093 76.333 52.7656 76.6113 52.9561C76.9043 53.1318 77.2266 53.2197 77.5781 53.2197C77.9297 53.2197 78.2666 53.1318 78.5889 52.9561C78.9258 52.7803 79.2407 52.5532 79.5337 52.2749C79.8267 51.9819 80.0977 51.6523 80.3467 51.2861C80.5957 50.9199 80.8081 50.5464 80.9839 50.1655ZM90.2783 52.3628H93.6621L94.2334 23.9741L90.3662 23.8862V23.0732L100.803 23.249L100.364 43.9473L110.493 34.499L105.308 34.4111V33.5981L116.162 33.7959V34.5869L111.526 34.543L111.614 34.5869L105.989 39.8604L114.141 52.4067H117.063V53.2197H104.275V52.4067H106.714L101.528 44.0352L100.364 45.1338L100.188 52.3628H102.209V53.1758H90.2783V52.3628ZM135.564 41.9697C135.564 42.7461 135.315 43.4492 134.817 44.0791C134.319 44.6943 133.674 45.2217 132.883 45.6611C132.107 46.1006 131.235 46.4521 130.269 46.7158C129.316 46.9648 128.379 47.0967 127.456 47.1113C127.397 47.1113 127.266 47.104 127.061 47.0894C126.855 47.0747 126.606 47.0308 126.313 46.9575C126.021 46.8696 125.691 46.7378 125.325 46.562C124.958 46.3862 124.592 46.1299 124.226 45.793C124.27 47.0967 124.387 48.2173 124.578 49.1548C124.783 50.0776 125.046 50.8394 125.369 51.4399C125.706 52.0259 126.094 52.458 126.533 52.7363C126.987 53 127.478 53.1318 128.005 53.1318C128.313 53.1318 128.723 53.0293 129.236 52.8242C129.763 52.6191 130.305 52.3042 130.862 51.8794C131.433 51.4546 131.99 50.9126 132.532 50.2534C133.074 49.5942 133.528 48.8032 133.894 47.8804L134.531 46.2544L135.322 46.5181L134.971 47.5068C134.648 48.3711 134.224 49.1914 133.696 49.9678C133.169 50.7441 132.554 51.4399 131.851 52.0552C131.162 52.6558 130.393 53.1392 129.543 53.5054C128.694 53.8862 127.786 54.106 126.819 54.1646C125.134 54.106 123.706 53.8057 122.534 53.2637C121.362 52.7217 120.41 52.0332 119.678 51.1982C118.945 50.3633 118.411 49.4331 118.074 48.4077C117.751 47.3823 117.59 46.3496 117.59 45.3096C117.59 44.6211 117.693 43.874 117.898 43.0684C118.118 42.248 118.433 41.4277 118.843 40.6074C119.253 39.7725 119.751 38.9668 120.337 38.1904C120.938 37.4141 121.611 36.7256 122.358 36.125C123.12 35.5244 123.948 35.0483 124.841 34.6968C125.75 34.3306 126.724 34.1475 127.764 34.1475C128.716 34.1768 129.565 34.3232 130.312 34.5869C131.074 34.8359 131.741 35.1729 132.312 35.5977C132.898 36.0078 133.396 36.4766 133.806 37.0039C134.216 37.5312 134.553 38.0806 134.817 38.6519C135.081 39.2085 135.271 39.7798 135.388 40.3657C135.505 40.937 135.564 41.4717 135.564 41.9697ZM127.412 34.9604C126.943 34.9897 126.504 35.2534 126.094 35.7515C125.698 36.2495 125.354 36.9307 125.061 37.7949C124.783 38.6445 124.563 39.6479 124.402 40.8052C124.241 41.9624 124.16 43.2075 124.16 44.5405C124.526 44.9653 124.893 45.2949 125.259 45.5293C125.625 45.7637 125.962 45.9395 126.27 46.0566C126.577 46.1592 126.833 46.2251 127.039 46.2544C127.244 46.2837 127.368 46.2983 127.412 46.2983C127.983 46.2837 128.452 46.1592 128.818 45.9248C129.199 45.6904 129.492 45.3682 129.697 44.958C129.917 44.5479 130.071 44.0571 130.159 43.4858C130.247 42.9146 130.291 42.2773 130.291 41.5742C130.291 40.6953 130.232 39.8604 130.115 39.0693C130.012 38.2637 129.844 37.5605 129.609 36.96C129.39 36.3447 129.097 35.8613 128.73 35.5098C128.364 35.1436 127.925 34.9604 127.412 34.9604ZM147.166 39.0474C147.605 38.1831 148.074 37.502 148.572 37.0039C149.07 36.5059 149.531 36.1177 149.956 35.8394C150.439 35.5317 150.93 35.312 151.428 35.1802C152.043 35.1216 152.571 35.1802 153.01 35.356C153.464 35.5171 153.831 35.7588 154.109 36.0811C154.402 36.4033 154.614 36.7842 154.746 37.2236C154.878 37.6631 154.944 38.1245 154.944 38.6079C154.944 39.0767 154.893 39.5527 154.79 40.0361C154.702 40.5195 154.578 40.981 154.417 41.4204C154.27 41.8599 154.087 42.2627 153.867 42.6289C153.662 42.9951 153.45 43.2881 153.23 43.5078H153.274C152.849 43.9619 152.446 44.2769 152.065 44.4526C151.685 44.6284 151.311 44.7163 150.945 44.7163C150.286 44.7163 149.751 44.5112 149.341 44.1011C148.931 43.6909 148.726 43.1343 148.726 42.4312C148.726 41.8892 148.85 41.2959 149.099 40.6514C149.348 40.0068 149.766 39.4136 150.352 38.8716C150.732 38.5493 151.128 38.2856 151.538 38.0806C151.89 37.9048 152.285 37.7656 152.725 37.6631C153.164 37.5605 153.604 37.5898 154.043 37.751C153.926 37.1943 153.669 36.7402 153.274 36.3887C152.878 36.0371 152.292 35.9053 151.516 35.9932C150.959 36.1104 150.417 36.3667 149.89 36.7622C149.436 37.0991 148.96 37.6045 148.462 38.2783C147.979 38.9375 147.561 39.8384 147.209 40.981L147.429 52.6045L151.208 52.4946V53.3076L137.673 53.5933V52.7803L140.596 52.7363L140.771 36.5205L138.376 36.3887V35.5757L147.122 35.9492L147.166 39.0474ZM173.357 34.8726H180.74V35.6855H177.268C174.866 40.666 173.013 44.416 171.709 46.9355C170.947 48.415 170.281 49.6748 169.709 50.7148C169.387 51.3301 169.028 52.0405 168.633 52.8462C168.237 53.6519 167.791 54.4795 167.292 55.3291C166.809 56.1934 166.274 57.0356 165.688 57.856C165.103 58.6909 164.465 59.4307 163.777 60.0752C163.103 60.7344 162.371 61.2617 161.58 61.6572C160.803 62.0674 159.976 62.2725 159.097 62.2725C158.599 62.2725 158.137 62.2065 157.712 62.0747C157.288 61.9429 156.907 61.7744 156.57 61.5693C156.233 61.3789 155.947 61.1592 155.713 60.9102C155.493 60.6611 155.332 60.4268 155.229 60.207C155.068 59.8408 154.98 59.4014 154.966 58.8887C154.937 58.376 155.024 57.8926 155.229 57.4385C155.435 56.9844 155.764 56.5962 156.218 56.2739C156.687 55.9663 157.332 55.8198 158.152 55.8345C158.738 55.8491 159.25 55.959 159.69 56.1641C160.129 56.3691 160.54 56.5889 160.92 56.8232C161.301 57.0723 161.675 57.2993 162.041 57.5044C162.422 57.7241 162.832 57.8413 163.271 57.856C163.799 57.856 164.26 57.7168 164.656 57.4385C165.051 57.1602 165.403 56.8086 165.71 56.3838C166.018 55.959 166.296 55.4976 166.545 54.9995C166.794 54.5161 167.036 54.062 167.271 53.6372L158.24 35.7295L155.889 35.6855V34.8726L169.072 35.1362V35.9492L166.194 35.9053L171.204 46.1665C171.833 44.9214 172.573 43.4419 173.423 41.728C174.287 40.0142 175.269 38 176.367 35.6855H173.357V34.8726ZM208.381 52.8682C208.806 52.8682 209.312 52.8608 209.897 52.8462C210.483 52.8315 211.113 52.751 211.787 52.6045C212.461 52.458 213.164 52.2236 213.896 51.9014C214.629 51.5791 215.354 51.1177 216.072 50.5171C216.804 49.9019 217.515 49.1182 218.203 48.166C218.892 47.2139 219.529 46.0347 220.115 44.6284L220.84 44.8921C220.239 46.3276 219.587 47.5435 218.884 48.5396C218.196 49.521 217.478 50.3413 216.731 51.0005C215.999 51.645 215.259 52.1504 214.512 52.5166C213.765 52.8828 213.04 53.1465 212.336 53.3076C211.633 53.4834 210.967 53.5859 210.337 53.6152C209.722 53.6592 209.172 53.6812 208.689 53.6812C208.25 53.6812 207.686 53.6592 206.997 53.6152C206.323 53.5859 205.576 53.498 204.756 53.3516C203.936 53.2051 203.071 52.9854 202.163 52.6924C201.27 52.3994 200.383 52.0039 199.504 51.5059C198.625 50.9932 197.791 50.3633 197 49.6162C196.208 48.8545 195.513 47.939 194.912 46.8696C194.312 45.7856 193.828 44.5259 193.462 43.0903C193.11 41.6548 192.935 40.0068 192.935 38.1465C192.935 35.7881 193.206 33.7446 193.748 32.0161C194.29 30.2729 195.007 28.7935 195.901 27.5776C196.809 26.3472 197.842 25.3438 198.999 24.5674C200.156 23.7764 201.343 23.1611 202.559 22.7217C203.774 22.2676 204.976 21.9526 206.162 21.7769C207.349 21.6011 208.418 21.5059 209.37 21.4912H209.678C211.494 21.4912 213.142 21.7402 214.622 22.2383C216.116 22.7217 217.39 23.3735 218.445 24.1938C219.514 25.0142 220.334 25.9517 220.906 27.0063C221.492 28.061 221.785 29.1523 221.785 30.2803C221.785 30.8223 221.682 31.3276 221.477 31.7964C221.272 32.2505 221.001 32.646 220.664 32.9829C220.342 33.3198 219.961 33.5835 219.521 33.7739C219.082 33.9644 218.635 34.0596 218.181 34.0596C217.712 34.0449 217.236 33.9277 216.753 33.708C216.284 33.4883 215.852 33.1807 215.457 32.7852C215.061 32.3896 214.717 31.9062 214.424 31.335C214.146 30.7637 213.962 30.1265 213.875 29.4233L213.721 28.3906C213.633 27.7314 213.516 27.0503 213.369 26.3472C213.223 25.6294 212.996 24.9702 212.688 24.3696C212.395 23.769 212.007 23.2783 211.523 22.8975C211.04 22.502 210.425 22.3042 209.678 22.3042H209.414C208.799 22.3481 208.169 22.502 207.524 22.7656C206.88 23.0146 206.25 23.4102 205.635 23.9521C205.034 24.4795 204.456 25.1606 203.899 25.9956C203.357 26.8159 202.881 27.812 202.471 28.9839C202.061 30.1411 201.731 31.4961 201.482 33.0488C201.248 34.5869 201.13 36.3301 201.13 38.2783C201.13 40.2412 201.233 41.9624 201.438 43.4419C201.658 44.9067 201.943 46.1812 202.295 47.2651C202.661 48.3345 203.079 49.228 203.547 49.9458C204.031 50.6489 204.529 51.2129 205.042 51.6377C205.569 52.0625 206.096 52.3701 206.624 52.5605C207.151 52.751 207.656 52.8535 208.14 52.8682H208.381ZM232.903 39.0474C233.342 38.1831 233.811 37.502 234.309 37.0039C234.807 36.5059 235.269 36.1177 235.693 35.8394C236.177 35.5317 236.667 35.312 237.166 35.1802C237.781 35.1216 238.308 35.1802 238.748 35.356C239.202 35.5171 239.568 35.7588 239.846 36.0811C240.139 36.4033 240.352 36.7842 240.483 37.2236C240.615 37.6631 240.681 38.1245 240.681 38.6079C240.681 39.0767 240.63 39.5527 240.527 40.0361C240.439 40.5195 240.315 40.981 240.154 41.4204C240.007 41.8599 239.824 42.2627 239.604 42.6289C239.399 42.9951 239.187 43.2881 238.967 43.5078H239.011C238.586 43.9619 238.184 44.2769 237.803 44.4526C237.422 44.6284 237.048 44.7163 236.682 44.7163C236.023 44.7163 235.488 44.5112 235.078 44.1011C234.668 43.6909 234.463 43.1343 234.463 42.4312C234.463 41.8892 234.587 41.2959 234.836 40.6514C235.085 40.0068 235.503 39.4136 236.089 38.8716C236.47 38.5493 236.865 38.2856 237.275 38.0806C237.627 37.9048 238.022 37.7656 238.462 37.6631C238.901 37.5605 239.341 37.5898 239.78 37.751C239.663 37.1943 239.407 36.7402 239.011 36.3887C238.616 36.0371 238.03 35.9053 237.253 35.9932C236.697 36.1104 236.155 36.3667 235.627 36.7622C235.173 37.0991 234.697 37.6045 234.199 38.2783C233.716 38.9375 233.298 39.8384 232.947 40.981L233.167 52.6045L236.946 52.4946V53.3076L223.411 53.5933V52.7803L226.333 52.7363L226.509 36.5205L224.114 36.3887V35.5757L232.859 35.9492L232.903 39.0474ZM263.906 44.936C263.906 45.9468 263.73 46.8916 263.379 47.7705C263.042 48.6348 262.581 49.4331 261.995 50.1655C261.423 50.8833 260.764 51.5278 260.017 52.0991C259.285 52.6558 258.516 53.1245 257.71 53.5054C256.919 53.9009 256.128 54.2012 255.337 54.4062C254.546 54.6113 253.813 54.7139 253.14 54.7139H252.92C252.246 54.6992 251.528 54.5894 250.767 54.3843C250.02 54.1792 249.272 53.8789 248.525 53.4834C247.793 53.1025 247.09 52.6265 246.416 52.0552C245.757 51.4839 245.171 50.8174 244.658 50.0557C244.146 49.2793 243.735 48.415 243.428 47.4629C243.12 46.4961 242.966 45.4341 242.966 44.2769C242.966 43.0903 243.149 42.0063 243.516 41.0249C243.882 40.0288 244.358 39.1426 244.944 38.3662C245.544 37.5898 246.218 36.916 246.965 36.3447C247.727 35.7734 248.489 35.2974 249.25 34.9165C250.027 34.5356 250.767 34.2573 251.47 34.0815C252.188 33.8911 252.81 33.7959 253.337 33.7959H253.513C254.407 33.8252 255.286 33.9863 256.15 34.2793C257.014 34.5576 257.827 34.9458 258.589 35.4438C259.365 35.9419 260.076 36.5352 260.72 37.2236C261.379 37.8975 261.943 38.6445 262.412 39.4648C262.881 40.2852 263.247 41.1567 263.511 42.0796C263.774 43.0024 263.906 43.9546 263.906 44.936ZM256.875 44.5845C256.875 44.2183 256.875 43.7129 256.875 43.0684C256.875 42.4238 256.846 41.7354 256.787 41.0029C256.743 40.2559 256.655 39.5015 256.523 38.7397C256.392 37.978 256.194 37.2896 255.93 36.6743C255.667 36.0591 255.322 35.561 254.897 35.1802C254.487 34.7847 253.967 34.5869 253.337 34.5869C252.136 34.5869 251.184 35.4072 250.481 37.0479C249.792 38.6885 249.448 41.1714 249.448 44.4966C249.448 46.1519 249.514 47.5728 249.646 48.7593C249.792 49.9458 250.012 50.9199 250.305 51.6816C250.598 52.4434 250.979 53 251.448 53.3516C251.917 53.7178 252.48 53.9009 253.14 53.9009H253.337C253.967 53.8716 254.487 53.6738 254.897 53.3076C255.322 52.9414 255.667 52.3848 255.93 51.6377C256.208 50.876 256.414 49.9165 256.545 48.7593C256.692 47.6021 256.802 46.2104 256.875 44.5845Z" fill="#3D1C00"/>
<path d="M55.47 83.33C55.34 83.36 55.225 83.375 55.125 83.375C55.035 83.375 54.96 83.36 54.9 83.33C54.84 83.3 54.81 83.26 54.81 83.21C54.81 83.05 55.015 82.905 55.425 82.775C57.575 82.105 59.285 81.04 60.555 79.58C61.835 78.11 62.595 76.39 62.835 74.42C62.845 74.24 62.805 74.105 62.715 74.015C62.625 73.915 62.495 73.865 62.325 73.865H60.015C59.745 73.865 59.54 74.005 59.4 74.285C58.92 75.255 58.38 76.085 57.78 76.775C57.18 77.465 56.57 77.98 55.95 78.32C55.76 78.42 55.61 78.47 55.5 78.47C55.38 78.47 55.32 78.42 55.32 78.32C55.32 78.25 55.355 78.165 55.425 78.065C55.495 77.965 55.595 77.87 55.725 77.78C56.355 77.33 56.885 76.775 57.315 76.115C57.755 75.445 58.08 74.775 58.29 74.105C58.51 73.435 58.62 72.855 58.62 72.365C58.62 71.975 58.55 71.725 58.41 71.615C58.27 71.515 58.2 71.415 58.2 71.315C58.2 71.205 58.29 71.15 58.47 71.15C58.59 71.15 58.725 71.18 58.875 71.24C59.675 71.57 60.045 71.91 59.985 72.26L59.94 72.515C59.92 72.615 59.91 72.68 59.91 72.71C59.91 72.83 59.95 72.925 60.03 72.995C60.11 73.065 60.225 73.095 60.375 73.085L61.095 73.07C61.575 73.07 61.96 73.06 62.25 73.04C62.55 73.01 62.75 72.96 62.85 72.89C63.03 72.77 63.21 72.71 63.39 72.71C63.59 72.71 63.78 72.77 63.96 72.89C64.15 73 64.3 73.14 64.41 73.31C64.53 73.47 64.59 73.62 64.59 73.76C64.59 73.83 64.565 73.9 64.515 73.97C64.425 74.07 64.335 74.225 64.245 74.435C64.165 74.635 64.045 74.955 63.885 75.395C63.655 76.055 63.445 76.615 63.255 77.075C63.075 77.535 62.835 78 62.535 78.47C61.865 79.52 60.92 80.49 59.7 81.38C58.48 82.26 57.07 82.91 55.47 83.33ZM71.025 81.77C71.025 81.29 70.975 79.925 70.875 77.675C70.825 76.345 70.7 75.305 70.5 74.555C70.3 73.805 70.03 73.295 69.69 73.025C69.56 72.925 69.495 72.835 69.495 72.755C69.495 72.635 69.62 72.575 69.87 72.575C70.04 72.575 70.295 72.645 70.635 72.785C70.985 72.925 71.245 73.09 71.415 73.28C71.515 73.39 71.63 73.48 71.76 73.55C71.9 73.61 72.04 73.635 72.18 73.625C72.25 73.615 72.355 73.61 72.495 73.61C73.105 73.55 73.905 73.505 74.895 73.475C75.905 73.425 76.665 73.375 77.175 73.325C77.695 73.275 78.05 73.225 78.24 73.175C78.43 73.125 78.61 73.06 78.78 72.98C78.87 72.93 78.98 72.905 79.11 72.905C79.31 72.905 79.52 72.97 79.74 73.1C79.96 73.23 80.14 73.39 80.28 73.58C80.43 73.76 80.505 73.92 80.505 74.06C80.505 74.21 80.415 74.305 80.235 74.345C79.995 74.395 79.755 75.085 79.515 76.415C79.275 77.735 79.09 78.995 78.96 80.195C78.95 80.305 78.965 80.395 79.005 80.465C79.045 80.525 79.115 80.59 79.215 80.66C79.305 80.74 79.375 80.825 79.425 80.915C79.485 81.005 79.515 81.085 79.515 81.155C79.515 81.285 79.44 81.35 79.29 81.35H72.495C72.335 81.35 72.215 81.39 72.135 81.47C72.065 81.55 72.01 81.68 71.97 81.86C71.91 82.12 71.77 82.29 71.55 82.37C71.49 82.39 71.445 82.4 71.415 82.4C71.305 82.4 71.21 82.35 71.13 82.25C71.06 82.14 71.025 81.98 71.025 81.77ZM71.865 80.3C71.915 80.63 72.095 80.795 72.405 80.795L73.125 80.81C73.655 80.81 74.41 80.785 75.39 80.735C76.1 80.705 76.865 80.65 77.685 80.57C78.005 80.55 78.18 80.37 78.21 80.03C78.28 79.24 78.39 78.175 78.54 76.835C78.56 76.605 78.59 76.27 78.63 75.83C78.68 75.39 78.705 75.07 78.705 74.87C78.705 74.61 78.665 74.44 78.585 74.36C78.505 74.28 78.33 74.22 78.06 74.18C77.81 74.15 77.48 74.135 77.07 74.135C76.73 74.135 76.03 74.155 74.97 74.195L72.105 74.285C71.765 74.305 71.595 74.48 71.595 74.81L71.58 75.635C71.58 76.175 71.595 76.74 71.625 77.33C71.665 78.12 71.745 79.11 71.865 80.3ZM87.015 83.3C86.885 83.33 86.77 83.345 86.67 83.345C86.51 83.345 86.43 83.3 86.43 83.21C86.43 83.15 86.465 83.09 86.535 83.03C86.615 82.97 86.715 82.92 86.835 82.88C88.155 82.49 89.305 81.855 90.285 80.975C91.275 80.095 92.035 79.095 92.565 77.975C93.105 76.845 93.4 75.725 93.45 74.615C93.48 74.025 93.195 73.73 92.595 73.73L90.93 73.76L89.715 73.79L86.955 73.85C86.795 73.85 86.665 73.895 86.565 73.985C86.475 74.065 86.43 74.18 86.43 74.33C86.43 74.76 86.445 75.185 86.475 75.605C86.505 76.075 86.545 76.535 86.595 76.985C86.635 77.445 86.655 77.715 86.655 77.795C86.655 78.015 86.58 78.215 86.43 78.395C86.29 78.575 86.135 78.665 85.965 78.665C85.825 78.665 85.705 78.585 85.605 78.425C85.515 78.265 85.47 78.015 85.47 77.675C85.47 77.575 85.48 77.345 85.5 76.985C85.54 76.405 85.55 75.935 85.53 75.575C85.45 73.825 85.18 72.775 84.72 72.425C84.57 72.305 84.495 72.205 84.495 72.125C84.495 72.025 84.585 71.975 84.765 71.975C84.935 71.975 85.15 72.025 85.41 72.125C85.56 72.175 85.715 72.265 85.875 72.395C86.045 72.525 86.19 72.665 86.31 72.815C86.4 72.945 86.49 73.04 86.58 73.1C86.68 73.15 86.8 73.175 86.94 73.175L88.005 73.19C88.925 73.19 89.73 73.175 90.42 73.145C90.98 73.115 91.415 73.075 91.725 73.025C92.035 72.975 92.295 72.9 92.505 72.8C92.725 72.7 92.995 72.55 93.315 72.35C93.445 72.27 93.595 72.23 93.765 72.23C94.005 72.23 94.265 72.295 94.545 72.425C94.825 72.545 95.06 72.695 95.25 72.875C95.45 73.055 95.55 73.225 95.55 73.385C95.55 73.495 95.49 73.59 95.37 73.67C95.21 73.77 95.065 74 94.935 74.36C94.805 74.71 94.645 75.25 94.455 75.98C93.995 77.76 93.14 79.295 91.89 80.585C90.64 81.865 89.015 82.77 87.015 83.3ZM101.7 83.135C101.46 83.135 101.34 83.08 101.34 82.97C101.32 82.82 101.5 82.695 101.88 82.595C102.53 82.445 103.245 82.125 104.025 81.635C104.805 81.145 105.565 80.525 106.305 79.775C106.965 79.105 107.495 78.35 107.895 77.51C108.305 76.66 108.51 75.945 108.51 75.365C108.51 75.185 108.485 75.02 108.435 74.87C108.345 74.69 108.3 74.54 108.3 74.42C108.3 74.33 108.325 74.265 108.375 74.225C108.435 74.185 108.515 74.18 108.615 74.21C108.735 74.25 108.885 74.355 109.065 74.525C109.245 74.685 109.4 74.875 109.53 75.095C109.66 75.305 109.725 75.505 109.725 75.695C109.725 75.885 109.615 76.24 109.395 76.76C109.175 77.28 108.85 77.865 108.42 78.515C108 79.165 107.5 79.78 106.92 80.36C106.29 80.99 105.625 81.515 104.925 81.935C104.225 82.345 103.585 82.65 103.005 82.85C102.435 83.04 102 83.135 101.7 83.135ZM104.58 76.88C104.34 76.88 104.16 76.73 104.04 76.43C103.74 75.65 103.435 75.085 103.125 74.735C103.005 74.585 102.945 74.455 102.945 74.345C102.945 74.235 103.005 74.18 103.125 74.18C103.275 74.18 103.445 74.255 103.635 74.405C104.085 74.695 104.495 75.16 104.865 75.8C104.965 75.99 105.015 76.17 105.015 76.34C105.015 76.5 104.975 76.63 104.895 76.73C104.815 76.83 104.71 76.88 104.58 76.88ZM102.525 78.41C102.415 78.41 102.315 78.37 102.225 78.29C102.135 78.2 102.07 78.075 102.03 77.915C101.89 77.465 101.76 77.11 101.64 76.85C101.52 76.59 101.355 76.325 101.145 76.055C101.025 75.905 100.965 75.78 100.965 75.68C100.965 75.57 101.035 75.515 101.175 75.515C101.295 75.515 101.45 75.595 101.64 75.755C101.95 76.005 102.205 76.255 102.405 76.505C102.615 76.755 102.795 77.05 102.945 77.39C103.005 77.52 103.035 77.645 103.035 77.765C103.035 77.945 102.98 78.1 102.87 78.23C102.77 78.35 102.655 78.41 102.525 78.41ZM116.88 83.15C116.7 83.16 116.56 83.145 116.46 83.105C116.36 83.065 116.31 83.015 116.31 82.955C116.31 82.895 116.36 82.845 116.46 82.805C116.57 82.755 116.715 82.725 116.895 82.715C117.725 82.685 118.495 82.455 119.205 82.025C119.925 81.595 120.48 81.04 120.87 80.36C121.42 79.38 121.72 78.07 121.77 76.43C121.78 76.26 121.735 76.13 121.635 76.04C121.545 75.94 121.41 75.89 121.23 75.89C120.79 75.89 120.43 75.895 120.15 75.905L119.28 75.935C118.9 75.955 118.715 76.135 118.725 76.475L118.83 78.215C118.84 78.385 118.8 78.55 118.71 78.71C118.62 78.87 118.505 79 118.365 79.1C118.235 79.2 118.115 79.25 118.005 79.25C117.825 79.25 117.735 79.13 117.735 78.89C117.725 78.83 117.725 78.685 117.735 78.455C117.745 78.215 117.755 78.005 117.765 77.825L117.81 76.595C117.82 76.415 117.77 76.28 117.66 76.19C117.56 76.1 117.415 76.07 117.225 76.1C116.755 76.16 116.36 76.22 116.04 76.28C115.61 76.36 115.295 76.4 115.095 76.4C114.895 76.4 114.725 76.365 114.585 76.295C114.275 76.155 114.03 75.96 113.85 75.71C113.68 75.46 113.595 75.245 113.595 75.065C113.595 74.905 113.655 74.825 113.775 74.825C113.875 74.825 113.99 74.885 114.12 75.005C114.33 75.185 114.7 75.305 115.23 75.365C115.76 75.425 116.44 75.45 117.27 75.44C117.45 75.43 117.58 75.38 117.66 75.29C117.75 75.19 117.79 75.05 117.78 74.87C117.73 74.08 117.66 73.51 117.57 73.16C117.49 72.8 117.33 72.565 117.09 72.455C116.87 72.355 116.76 72.255 116.76 72.155C116.76 72.065 116.85 72.02 117.03 72.02C117.35 72.02 117.655 72.075 117.945 72.185C118.235 72.295 118.46 72.44 118.62 72.62C118.79 72.8 118.855 72.985 118.815 73.175C118.715 73.655 118.665 74.22 118.665 74.87C118.665 75.03 118.705 75.155 118.785 75.245C118.875 75.335 119 75.38 119.16 75.38C119.58 75.38 119.905 75.375 120.135 75.365L121.215 75.35C121.385 75.35 121.515 75.305 121.605 75.215C121.705 75.115 121.75 74.98 121.74 74.81C121.72 74.39 121.68 73.77 121.62 72.95C121.61 72.71 121.56 72.495 121.47 72.305C121.39 72.115 121.305 72.005 121.215 71.975C121.005 71.905 120.9 71.815 120.9 71.705C120.9 71.655 120.93 71.615 120.99 71.585C121.05 71.545 121.135 71.525 121.245 71.525C121.285 71.525 121.365 71.535 121.485 71.555C121.875 71.625 122.2 71.75 122.46 71.93C122.73 72.1 122.89 72.265 122.94 72.425C122.96 72.525 122.97 72.585 122.97 72.605C122.97 72.665 122.94 72.81 122.88 73.04C122.82 73.27 122.79 73.585 122.79 73.985V74.72C122.79 75.09 122.98 75.26 123.36 75.23C123.81 75.19 124.17 75.145 124.44 75.095C124.48 75.095 124.585 75.085 124.755 75.065C124.935 75.035 125.09 75.03 125.22 75.05C125.39 75.07 125.565 75.145 125.745 75.275C125.935 75.395 126.09 75.535 126.21 75.695C126.34 75.855 126.405 75.985 126.405 76.085C126.405 76.185 126.34 76.235 126.21 76.235L126.015 76.205C125.625 76.095 124.72 76.005 123.3 75.935C122.96 75.925 122.775 76.095 122.745 76.445C122.695 77.355 122.57 78.18 122.37 78.92C122.17 79.65 121.855 80.31 121.425 80.9C120.955 81.56 120.32 82.085 119.52 82.475C118.73 82.865 117.85 83.09 116.88 83.15ZM131.88 75.305C131.52 74.665 131.205 74.19 130.935 73.88C130.665 73.57 130.315 73.305 129.885 73.085C129.615 72.945 129.48 72.82 129.48 72.71C129.48 72.62 129.58 72.575 129.78 72.575C129.91 72.575 130.055 72.595 130.215 72.635C130.745 72.765 131.235 72.965 131.685 73.235C132.135 73.495 132.5 73.8 132.78 74.15C132.99 74.4 133.095 74.665 133.095 74.945C133.095 75.165 133.03 75.35 132.9 75.5C132.78 75.65 132.635 75.725 132.465 75.725C132.225 75.725 132.03 75.585 131.88 75.305ZM131.58 82.535C131.32 82.535 131.075 82.445 130.845 82.265C130.625 82.085 130.445 81.875 130.305 81.635C130.165 81.395 130.095 81.195 130.095 81.035C130.095 80.905 130.14 80.84 130.23 80.84C130.32 80.84 130.44 80.9 130.59 81.02C130.78 81.18 131.045 81.26 131.385 81.26C132.105 81.26 133.005 80.92 134.085 80.24C135.175 79.56 136.275 78.61 137.385 77.39C138.505 76.16 139.465 74.77 140.265 73.22C140.485 72.81 140.665 72.605 140.805 72.605C140.895 72.605 140.94 72.69 140.94 72.86C140.94 73.07 140.87 73.335 140.73 73.655C140.05 75.225 139.105 76.69 137.895 78.05C136.685 79.41 135.48 80.5 134.28 81.32C133.08 82.13 132.18 82.535 131.58 82.535ZM143.715 79.865C143.595 79.875 143.5 79.85 143.43 79.79C143.36 79.73 143.325 79.66 143.325 79.58C143.325 79.49 143.36 79.415 143.43 79.355C143.5 79.285 143.595 79.255 143.715 79.265C144.375 79.325 144.975 79.355 145.515 79.355H150.315C150.485 79.355 150.615 79.31 150.705 79.22C150.795 79.12 150.84 78.99 150.84 78.83V78.47C150.84 78.3 150.795 78.17 150.705 78.08C150.615 77.99 150.485 77.945 150.315 77.945H147.315C146.995 77.945 146.825 78.06 146.805 78.29C146.795 78.44 146.725 78.56 146.595 78.65C146.465 78.74 146.325 78.785 146.175 78.785C146.065 78.785 145.975 78.755 145.905 78.695C145.845 78.625 145.815 78.54 145.815 78.44L145.83 77.45L145.845 73.52C145.845 73.41 145.92 73.355 146.07 73.355C146.25 73.355 146.395 73.38 146.505 73.43C146.625 73.48 146.745 73.545 146.865 73.625C146.985 73.705 147.07 73.745 147.12 73.745H148.995C149.245 73.745 149.37 73.62 149.37 73.37V73.25C149.37 73.08 149.325 72.95 149.235 72.86C149.145 72.77 149.015 72.725 148.845 72.725H145.65C145.25 72.725 144.765 72.745 144.195 72.785L143.835 72.815C143.735 72.825 143.655 72.8 143.595 72.74C143.545 72.67 143.52 72.595 143.52 72.515C143.52 72.425 143.545 72.35 143.595 72.29C143.655 72.23 143.735 72.205 143.835 72.215L144.195 72.245C144.825 72.285 145.31 72.305 145.65 72.305H148.845C149.015 72.305 149.145 72.26 149.235 72.17C149.325 72.07 149.37 71.94 149.37 71.78V70.94C149.37 70.69 149.44 70.505 149.58 70.385C149.73 70.255 149.915 70.19 150.135 70.19C150.315 70.19 150.465 70.225 150.585 70.295C150.705 70.365 150.765 70.435 150.765 70.505C150.765 70.585 150.685 70.63 150.525 70.64C150.465 70.65 150.415 70.685 150.375 70.745C150.345 70.805 150.33 70.87 150.33 70.94V71.78C150.33 71.94 150.375 72.07 150.465 72.17C150.565 72.26 150.695 72.305 150.855 72.305H153.825C154.025 72.305 154.19 72.265 154.32 72.185C154.46 72.095 154.605 71.975 154.755 71.825C154.975 71.605 155.2 71.495 155.43 71.495C155.56 71.495 155.69 71.535 155.82 71.615C155.97 71.715 156.11 71.835 156.24 71.975C156.35 72.105 156.405 72.23 156.405 72.35C156.405 72.46 156.36 72.55 156.27 72.62C156.18 72.69 156.05 72.725 155.88 72.725L150.855 72.74C150.695 72.74 150.565 72.785 150.465 72.875C150.375 72.965 150.33 73.095 150.33 73.265V73.37C150.33 73.62 150.455 73.745 150.705 73.745H152.22C152.31 73.745 152.395 73.725 152.475 73.685C152.565 73.635 152.645 73.58 152.715 73.52C152.775 73.47 152.84 73.425 152.91 73.385C152.98 73.335 153.05 73.31 153.12 73.31C153.23 73.31 153.37 73.36 153.54 73.46C153.72 73.56 153.875 73.675 154.005 73.805C154.135 73.935 154.2 74.04 154.2 74.12C154.2 74.19 154.185 74.245 154.155 74.285C154.125 74.315 154.08 74.355 154.02 74.405C153.94 74.465 153.875 74.53 153.825 74.6C153.785 74.67 153.765 74.775 153.765 74.915V78.17C153.765 78.36 153.695 78.51 153.555 78.62C153.415 78.73 153.26 78.785 153.09 78.785C152.87 78.785 152.76 78.655 152.76 78.395C152.76 78.095 152.585 77.945 152.235 77.945C152.095 77.945 151.985 77.995 151.905 78.095C151.835 78.185 151.8 78.31 151.8 78.47V78.83C151.8 78.99 151.845 79.12 151.935 79.22C152.035 79.31 152.165 79.355 152.325 79.355H154.29C154.49 79.355 154.685 79.31 154.875 79.22C155.065 79.12 155.225 79.005 155.355 78.875C155.515 78.715 155.68 78.635 155.85 78.635C156.07 78.635 156.3 78.765 156.54 79.025C156.65 79.155 156.705 79.28 156.705 79.4C156.705 79.51 156.66 79.6 156.57 79.67C156.48 79.74 156.35 79.775 156.18 79.775H152.325C152.165 79.775 152.035 79.82 151.935 79.91C151.845 80 151.8 80.13 151.8 80.3V82.955C151.8 83.365 151.7 83.66 151.5 83.84C151.3 84.03 151.035 84.125 150.705 84.125C150.595 84.125 150.52 84.1 150.48 84.05C150.44 84.01 150.4 83.94 150.36 83.84C150.32 83.71 150.26 83.6 150.18 83.51C150.11 83.43 149.985 83.365 149.805 83.315C149.235 83.175 148.835 83.07 148.605 83C148.535 82.98 148.48 82.95 148.44 82.91C148.4 82.86 148.38 82.81 148.38 82.76C148.38 82.69 148.41 82.635 148.47 82.595C148.54 82.555 148.625 82.545 148.725 82.565L149.22 82.685C149.7 82.795 150.025 82.865 150.195 82.895C150.225 82.905 150.275 82.91 150.345 82.91C150.535 82.91 150.665 82.84 150.735 82.7C150.805 82.55 150.84 82.34 150.84 82.07V80.315C150.84 80.145 150.795 80.015 150.705 79.925C150.615 79.835 150.485 79.79 150.315 79.79H145.725C144.725 79.8 144.055 79.825 143.715 79.865ZM146.805 75.065C146.805 75.395 146.975 75.57 147.315 75.59H148.995C149.245 75.59 149.37 75.465 149.37 75.215V74.525C149.37 74.275 149.245 74.15 148.995 74.15H147.33C147.17 74.15 147.04 74.195 146.94 74.285C146.85 74.375 146.805 74.505 146.805 74.675V75.065ZM150.33 75.23C150.33 75.48 150.455 75.605 150.705 75.605H152.295C152.455 75.615 152.58 75.575 152.67 75.485C152.76 75.385 152.805 75.25 152.805 75.08V74.675C152.805 74.505 152.76 74.375 152.67 74.285C152.58 74.195 152.45 74.15 152.28 74.15H150.705C150.455 74.15 150.33 74.275 150.33 74.525V75.23ZM150.33 77.165C150.33 77.415 150.455 77.54 150.705 77.54H152.28C152.45 77.54 152.58 77.495 152.67 77.405C152.76 77.305 152.805 77.175 152.805 77.015V76.61C152.805 76.44 152.765 76.31 152.685 76.22C152.605 76.13 152.495 76.085 152.355 76.085H150.705C150.455 76.085 150.33 76.21 150.33 76.46V77.165ZM146.805 77C146.805 77.16 146.85 77.285 146.94 77.375C147.03 77.465 147.16 77.515 147.33 77.525H148.995C149.245 77.525 149.37 77.4 149.37 77.15V76.475C149.37 76.225 149.245 76.1 148.995 76.1H147.315C146.975 76.12 146.805 76.295 146.805 76.625V77ZM146.385 80.6C146.315 80.56 146.28 80.5 146.28 80.42C146.28 80.37 146.295 80.33 146.325 80.3C146.365 80.27 146.425 80.26 146.505 80.27C147.065 80.36 147.57 80.5 148.02 80.69C148.48 80.87 148.755 81.12 148.845 81.44C148.855 81.47 148.86 81.51 148.86 81.56C148.86 81.69 148.815 81.8 148.725 81.89C148.645 81.97 148.54 82.01 148.41 82.01C148.29 82.01 148.16 81.95 148.02 81.83C147.3 81.16 146.755 80.75 146.385 80.6ZM159.855 83.54C159.855 83.72 159.785 83.865 159.645 83.975C159.515 84.095 159.375 84.155 159.225 84.155C159.125 84.155 159.04 84.12 158.97 84.05C158.91 83.99 158.885 83.9 158.895 83.78V70.61C158.895 70.5 158.97 70.445 159.12 70.445C159.22 70.445 159.32 70.47 159.42 70.52C159.53 70.57 159.62 70.635 159.69 70.715C159.78 70.815 159.855 70.885 159.915 70.925C159.975 70.965 160.05 70.985 160.14 70.985H162.45C162.54 70.985 162.625 70.965 162.705 70.925C162.795 70.875 162.875 70.82 162.945 70.76C163.005 70.71 163.07 70.665 163.14 70.625C163.21 70.575 163.28 70.55 163.35 70.55C163.51 70.55 163.67 70.6 163.83 70.7C164 70.8 164.14 70.915 164.25 71.045C164.37 71.175 164.43 71.28 164.43 71.36C164.43 71.43 164.415 71.485 164.385 71.525C164.355 71.555 164.31 71.595 164.25 71.645C164.17 71.705 164.105 71.77 164.055 71.84C164.015 71.91 163.995 72.015 163.995 72.155V76.235C163.995 76.425 163.925 76.575 163.785 76.685C163.645 76.795 163.49 76.85 163.32 76.85C163.23 76.85 163.15 76.825 163.08 76.775C163.02 76.715 162.99 76.635 162.99 76.535C162.99 76.365 162.945 76.25 162.855 76.19C162.775 76.13 162.645 76.1 162.465 76.1H160.23C159.98 76.1 159.855 76.225 159.855 76.475V83.54ZM165.93 75.815C165.94 75.715 165.945 75.575 165.945 75.395V70.61C165.945 70.5 166.02 70.445 166.17 70.445C166.27 70.445 166.37 70.47 166.47 70.52C166.58 70.57 166.67 70.635 166.74 70.715C166.83 70.815 166.905 70.885 166.965 70.925C167.025 70.965 167.1 70.985 167.19 70.985H169.5C169.59 70.985 169.675 70.965 169.755 70.925C169.845 70.875 169.925 70.82 169.995 70.76C170.055 70.71 170.12 70.665 170.19 70.625C170.26 70.575 170.33 70.55 170.4 70.55C170.56 70.55 170.72 70.6 170.88 70.7C171.05 70.8 171.19 70.915 171.3 71.045C171.42 71.175 171.48 71.28 171.48 71.36C171.48 71.43 171.465 71.485 171.435 71.525C171.405 71.555 171.36 71.595 171.3 71.645C171.22 71.705 171.155 71.77 171.105 71.84C171.065 71.91 171.045 72.015 171.045 72.155L171 81.935V82.97C171 83.37 170.855 83.665 170.565 83.855C170.285 84.045 169.965 84.14 169.605 84.14C169.495 84.14 169.42 84.115 169.38 84.065C169.35 84.015 169.32 83.93 169.29 83.81C169.25 83.66 169.195 83.535 169.125 83.435C169.055 83.345 168.93 83.27 168.75 83.21L167.79 82.91C167.71 82.89 167.645 82.855 167.595 82.805C167.555 82.755 167.535 82.7 167.535 82.64C167.535 82.58 167.555 82.53 167.595 82.49C167.645 82.45 167.71 82.43 167.79 82.43C167.82 82.43 167.875 82.44 167.955 82.46L168.27 82.535C168.55 82.615 168.875 82.69 169.245 82.76C169.275 82.77 169.325 82.775 169.395 82.775C169.605 82.775 169.765 82.7 169.875 82.55C169.985 82.39 170.04 82.185 170.04 81.935V76.535C170.04 76.365 169.995 76.25 169.905 76.19C169.825 76.13 169.695 76.1 169.515 76.1H167.25C167.17 76.1 167.11 76.12 167.07 76.16C167.03 76.2 166.985 76.255 166.935 76.325C166.885 76.395 166.84 76.46 166.8 76.52C166.74 76.61 166.66 76.68 166.56 76.73C166.46 76.77 166.365 76.79 166.275 76.79C166.175 76.79 166.09 76.76 166.02 76.7C165.95 76.64 165.915 76.555 165.915 76.445L165.93 75.815ZM159.855 72.95C159.855 73.2 159.98 73.325 160.23 73.325H162.66C162.91 73.325 163.035 73.2 163.035 72.95V71.915C163.035 71.745 162.99 71.615 162.9 71.525C162.81 71.435 162.68 71.39 162.51 71.39H160.23C159.98 71.39 159.855 71.515 159.855 71.765V72.95ZM167.28 71.42C167.03 71.42 166.905 71.545 166.905 71.795V72.95C166.905 73.2 167.03 73.325 167.28 73.325H169.71C169.96 73.325 170.085 73.2 170.085 72.95V71.915C170.085 71.745 170.04 71.615 169.95 71.525C169.86 71.435 169.73 71.39 169.56 71.39L167.28 71.42ZM159.855 75.305C159.855 75.555 159.98 75.68 160.23 75.68L162.51 75.695C162.68 75.695 162.81 75.65 162.9 75.56C162.99 75.46 163.035 75.33 163.035 75.17V74.135C163.035 73.885 162.91 73.76 162.66 73.76L160.23 73.745C159.98 73.745 159.855 73.87 159.855 74.12V75.305ZM166.905 75.305C166.905 75.555 167.03 75.68 167.28 75.68L169.56 75.695C169.73 75.695 169.86 75.65 169.95 75.56C170.04 75.46 170.085 75.33 170.085 75.17V74.135C170.085 73.885 169.96 73.76 169.71 73.76L167.28 73.745C167.03 73.745 166.905 73.87 166.905 74.12V75.305ZM184.695 74.69C184.615 74.6 184.55 74.485 184.5 74.345C184.43 74.175 184.34 74.03 184.23 73.91C184.12 73.78 183.915 73.63 183.615 73.46C183.505 73.39 183.45 73.32 183.45 73.25C183.45 73.15 183.515 73.1 183.645 73.1C183.725 73.1 183.825 73.13 183.945 73.19C184.525 73.46 184.945 73.715 185.205 73.955C185.465 74.195 185.595 74.4 185.595 74.57C185.595 74.67 185.555 74.75 185.475 74.81C185.395 74.87 185.295 74.9 185.175 74.9C184.985 74.9 184.825 74.83 184.695 74.69ZM183.36 75.53C183.29 75.42 183.24 75.31 183.21 75.2C183.14 75.01 183.05 74.85 182.94 74.72C182.83 74.58 182.62 74.415 182.31 74.225C182.2 74.145 182.145 74.07 182.145 74C182.145 73.96 182.16 73.93 182.19 73.91C182.23 73.88 182.28 73.865 182.34 73.865C182.42 73.865 182.525 73.895 182.655 73.955C183.215 74.245 183.62 74.515 183.87 74.765C184.12 75.005 184.245 75.215 184.245 75.395C184.245 75.505 184.2 75.595 184.11 75.665C184.03 75.725 183.93 75.755 183.81 75.755C183.61 75.755 183.46 75.68 183.36 75.53ZM184.815 80.84C184.275 80.37 183.795 79.915 183.375 79.475C182.965 79.035 182.41 78.415 181.71 77.615C181.59 77.475 181.31 77.155 180.87 76.655C180.44 76.155 179.985 75.65 179.505 75.14C179.385 75.01 179.285 74.915 179.205 74.855C179.135 74.795 179.05 74.765 178.95 74.765C178.69 74.765 178.365 75.05 177.975 75.62L177.18 76.805C176.71 77.515 176.34 78.06 176.07 78.44C175.8 78.81 175.595 79.045 175.455 79.145C175.265 79.285 175.065 79.355 174.855 79.355C174.625 79.355 174.365 79.28 174.075 79.13C173.935 79.06 173.82 78.985 173.73 78.905C173.64 78.815 173.595 78.735 173.595 78.665C173.595 78.505 173.78 78.44 174.15 78.47C174.5 78.49 174.9 78.27 175.35 77.81C175.81 77.35 176.41 76.65 177.15 75.71L177.6 75.125C177.89 74.755 178.14 74.49 178.35 74.33C178.56 74.16 178.75 74.075 178.92 74.075C179.08 74.075 179.24 74.135 179.4 74.255C179.56 74.365 179.765 74.545 180.015 74.795L181.11 75.89C182.26 77.05 183.175 77.94 183.855 78.56C184.545 79.17 185.3 79.735 186.12 80.255C186.49 80.485 186.675 80.695 186.675 80.885C186.675 80.995 186.605 81.085 186.465 81.155C186.335 81.215 186.17 81.245 185.97 81.245C185.77 81.245 185.565 81.215 185.355 81.155C185.155 81.085 184.975 80.98 184.815 80.84ZM190.2 78.29C189.97 78.29 189.735 78.215 189.495 78.065C189.255 77.905 189.05 77.72 188.88 77.51C188.72 77.3 188.64 77.125 188.64 76.985C188.64 76.865 188.705 76.805 188.835 76.805C188.915 76.805 189.055 76.835 189.255 76.895C189.695 77.025 190.395 77.12 191.355 77.18C192.325 77.24 193.27 77.27 194.19 77.27L194.925 77.255C196.135 77.225 197.07 77.165 197.73 77.075C198.4 76.975 199 76.865 199.53 76.745C199.73 76.695 199.86 76.67 199.92 76.67C200.13 76.67 200.345 76.735 200.565 76.865C200.795 76.995 200.985 77.15 201.135 77.33C201.285 77.51 201.36 77.665 201.36 77.795C201.36 77.985 201.19 78.065 200.85 78.035C199.35 77.915 197.855 77.855 196.365 77.855C195.825 77.855 194.805 77.9 193.305 77.99C191.815 78.08 190.855 78.17 190.425 78.26C190.325 78.28 190.25 78.29 190.2 78.29ZM205.17 83.48C204.93 83.6 204.755 83.66 204.645 83.66C204.535 83.66 204.48 83.625 204.48 83.555C204.48 83.495 204.52 83.42 204.6 83.33C204.69 83.25 204.815 83.165 204.975 83.075C205.445 82.825 205.945 82.38 206.475 81.74C207.015 81.09 207.515 80.285 207.975 79.325C208.445 78.355 208.805 77.3 209.055 76.16C209.065 76.13 209.07 76.085 209.07 76.025C209.07 75.865 209.02 75.75 208.92 75.68C208.82 75.61 208.68 75.59 208.5 75.62C208.09 75.69 207.69 75.775 207.3 75.875C206.9 75.965 206.64 76.01 206.52 76.01C206.38 76.01 206.245 75.985 206.115 75.935C205.995 75.885 205.855 75.795 205.695 75.665C205.525 75.525 205.38 75.365 205.26 75.185C205.15 75.005 205.095 74.855 205.095 74.735C205.095 74.635 205.145 74.585 205.245 74.585C205.355 74.585 205.49 74.64 205.65 74.75C205.9 74.9 206.465 74.975 207.345 74.975C207.785 74.975 208.255 74.96 208.755 74.93C209.085 74.92 209.265 74.75 209.295 74.42C209.305 74.34 209.325 74.06 209.355 73.58C209.375 73.26 209.385 73.005 209.385 72.815C209.385 72.175 209.26 71.77 209.01 71.6C208.92 71.54 208.875 71.47 208.875 71.39C208.875 71.33 208.895 71.285 208.935 71.255C208.985 71.215 209.05 71.195 209.13 71.195C209.28 71.195 209.515 71.275 209.835 71.435C210.165 71.595 210.385 71.76 210.495 71.93C210.595 72.09 210.645 72.23 210.645 72.35C210.645 72.42 210.63 72.52 210.6 72.65C210.57 72.77 210.545 72.88 210.525 72.98C210.465 73.2 210.395 73.625 210.315 74.255C210.295 74.435 210.33 74.575 210.42 74.675C210.51 74.765 210.645 74.805 210.825 74.795C212.325 74.665 213.24 74.445 213.57 74.135C213.64 74.065 213.74 74.03 213.87 74.03C214.03 74.03 214.215 74.085 214.425 74.195C214.635 74.295 214.81 74.42 214.95 74.57C215.1 74.72 215.175 74.855 215.175 74.975C215.175 75.065 215.135 75.135 215.055 75.185C214.985 75.235 214.92 75.395 214.86 75.665C214.81 75.925 214.75 76.35 214.68 76.94C214.52 78.24 214.325 79.375 214.095 80.345C213.875 81.305 213.52 82.125 213.03 82.805C212.87 83.015 212.68 83.12 212.46 83.12C212.32 83.12 212.19 83.065 212.07 82.955C211.96 82.835 211.88 82.66 211.83 82.43C211.79 82.24 211.605 82.04 211.275 81.83C210.945 81.61 210.645 81.435 210.375 81.305C210.105 81.165 209.935 81.075 209.865 81.035C209.725 80.955 209.655 80.865 209.655 80.765C209.655 80.725 209.67 80.69 209.7 80.66C209.73 80.63 209.77 80.615 209.82 80.615C209.9 80.615 209.99 80.65 210.09 80.72C210.79 81.15 211.355 81.365 211.785 81.365C212.175 81.365 212.49 81.205 212.73 80.885C213.02 80.505 213.255 79.87 213.435 78.98C213.615 78.08 213.705 77.245 213.705 76.475C213.705 75.755 213.625 75.35 213.465 75.26C213.285 75.17 213.055 75.125 212.775 75.125C212.585 75.125 212.17 75.165 211.53 75.245C211.41 75.255 211.275 75.27 211.125 75.29C210.975 75.31 210.805 75.33 210.615 75.35C210.465 75.36 210.335 75.45 210.225 75.62C210.115 75.78 210.02 76.025 209.94 76.355C209.64 77.535 209.215 78.615 208.665 79.595C208.125 80.575 207.545 81.395 206.925 82.055C206.305 82.705 205.72 83.18 205.17 83.48ZM222.42 83.48C222.34 83.5 222.235 83.51 222.105 83.51C221.915 83.51 221.82 83.47 221.82 83.39C221.82 83.3 221.96 83.22 222.24 83.15C223.68 82.8 224.755 82.21 225.465 81.38C226.175 80.55 226.625 79.64 226.815 78.65C227.015 77.66 227.115 76.495 227.115 75.155V73.745C227.115 73.235 227.055 72.845 226.935 72.575C226.825 72.305 226.68 72.075 226.5 71.885C226.41 71.765 226.35 71.675 226.32 71.615C226.29 71.555 226.29 71.48 226.32 71.39C226.35 71.31 226.445 71.27 226.605 71.27C226.815 71.27 227.055 71.33 227.325 71.45C227.605 71.57 227.835 71.74 228.015 71.96C228.205 72.17 228.28 72.4 228.24 72.65C228.21 72.85 228.18 73.225 228.15 73.775C228.12 74.325 228.105 74.755 228.105 75.065C228.105 76.435 228.015 77.62 227.835 78.62C227.665 79.62 227.16 80.59 226.32 81.53C225.49 82.47 224.19 83.12 222.42 83.48ZM222.12 78.605C222.12 78.525 222.14 78.315 222.18 77.975C222.19 77.925 222.21 77.735 222.24 77.405C222.28 77.065 222.3 76.66 222.3 76.19C222.3 75.27 222.265 74.495 222.195 73.865C222.125 73.225 221.965 72.815 221.715 72.635C221.515 72.495 221.415 72.36 221.415 72.23C221.415 72.16 221.44 72.105 221.49 72.065C221.55 72.025 221.63 72.005 221.73 72.005C221.8 72.005 221.85 72.01 221.88 72.02C222.22 72.09 222.55 72.26 222.87 72.53C223.19 72.79 223.335 73.065 223.305 73.355C223.275 73.615 223.245 74.01 223.215 74.54C223.195 75.07 223.185 75.6 223.185 76.13C223.185 76.78 223.195 77.325 223.215 77.765C223.225 77.895 223.23 78.1 223.23 78.38C223.23 78.59 223.15 78.785 222.99 78.965C222.83 79.145 222.665 79.235 222.495 79.235C222.385 79.235 222.295 79.185 222.225 79.085C222.155 78.975 222.12 78.815 222.12 78.605ZM235.2 78.29C234.97 78.29 234.735 78.215 234.495 78.065C234.255 77.905 234.05 77.72 233.88 77.51C233.72 77.3 233.64 77.125 233.64 76.985C233.64 76.865 233.705 76.805 233.835 76.805C233.915 76.805 234.055 76.835 234.255 76.895C234.695 77.025 235.395 77.12 236.355 77.18C237.325 77.24 238.27 77.27 239.19 77.27L239.925 77.255C241.135 77.225 242.07 77.165 242.73 77.075C243.4 76.975 244 76.865 244.53 76.745C244.73 76.695 244.86 76.67 244.92 76.67C245.13 76.67 245.345 76.735 245.565 76.865C245.795 76.995 245.985 77.15 246.135 77.33C246.285 77.51 246.36 77.665 246.36 77.795C246.36 77.985 246.19 78.065 245.85 78.035C244.35 77.915 242.855 77.855 241.365 77.855C240.825 77.855 239.805 77.9 238.305 77.99C236.815 78.08 235.855 78.17 235.425 78.26C235.325 78.28 235.25 78.29 235.2 78.29Z" fill="#3D1C00"/>
</svg>
