<svg width="300" height="85" viewBox="0 0 300 85" fill="none" xmlns="http://www.w3.org/2000/svg">
<path d="M36.2695 13.3481H49.1235C49.7681 13.3481 50.4932 13.3555 51.2988 13.3701C52.1191 13.3848 52.9761 13.4287 53.8696 13.502C54.7632 13.5605 55.6714 13.6558 56.5942 13.7876C57.5317 13.9048 58.4399 14.0732 59.3188 14.293C60.1978 14.498 61.0181 14.7617 61.7798 15.084C62.5562 15.3916 63.23 15.7651 63.8013 16.2046C64.3872 16.644 64.8486 17.1641 65.1855 17.7646C65.5225 18.3506 65.6909 19.0244 65.6909 19.7861C65.6909 20.8262 65.4053 21.7563 64.834 22.5767C64.2627 23.397 63.4937 24.1147 62.5269 24.73C61.5747 25.3306 60.4688 25.8433 59.209 26.2681C57.9492 26.6782 56.6309 26.9932 55.2539 27.2129C56.7188 27.4473 58.0078 27.7402 59.1211 28.0918C60.2344 28.4434 61.2012 28.8389 62.0215 29.2783C62.8564 29.7031 63.5522 30.1499 64.1089 30.6187C64.6802 31.0874 65.1489 31.5488 65.5151 32.0029C66.3794 33.0723 66.8701 34.2075 66.9873 35.4087C66.9873 36.7417 66.7456 37.8916 66.2622 38.8584C65.7935 39.8252 65.1562 40.6455 64.3506 41.3193C63.5596 41.9785 62.644 42.5132 61.604 42.9233C60.564 43.3335 59.48 43.6558 58.3521 43.8901C57.2241 44.1099 56.0889 44.2563 54.9463 44.3296C53.8037 44.4028 52.7344 44.4395 51.7383 44.4395C51.2549 44.4395 50.8081 44.4395 50.3979 44.4395C49.9878 44.4541 49.5264 44.4541 49.0137 44.4395C48.501 44.4395 47.8857 44.4321 47.168 44.4175C46.4648 44.4028 45.5786 44.3735 44.5093 44.3296C43.4546 44.3003 42.1729 44.2417 40.6641 44.1538C39.1699 44.0806 37.3608 43.9854 35.2368 43.8682L35.3247 43.3628H41.3892V14.1611H36.2695V13.3481ZM49.3213 27.6304L49.0796 43.6045C49.4604 43.6338 49.8706 43.6484 50.3101 43.6484C50.7642 43.6484 51.2402 43.6484 51.7383 43.6484C52.9248 43.5605 53.9648 43.3555 54.8584 43.0332C55.7666 42.7109 56.521 42.2349 57.1216 41.605C57.7368 40.9604 58.2056 40.1401 58.5278 39.144C58.8647 38.1333 59.0625 36.9028 59.1211 35.4526C59.1211 34.061 58.9673 32.8745 58.6597 31.8931C58.3667 30.897 57.8467 30.084 57.0996 29.4541C56.3525 28.8242 55.3491 28.3628 54.0894 28.0698C52.8296 27.7769 51.2402 27.6304 49.3213 27.6304ZM58.0884 20.1597C58.0737 20.1743 58.0664 20.0425 58.0664 19.7642C58.0664 19.4712 58.0298 19.105 57.9565 18.6655C57.8833 18.2261 57.7515 17.75 57.561 17.2373C57.3706 16.7246 57.0776 16.2485 56.6821 15.8091C56.3013 15.355 55.7959 14.9814 55.166 14.6885C54.5361 14.3955 53.7524 14.249 52.8149 14.249C52.1851 14.249 51.5845 14.2344 51.0132 14.2051C50.4565 14.1758 49.9512 14.1611 49.4971 14.1611L49.3213 26.7295C49.6143 26.7295 49.8999 26.7368 50.1782 26.7515C50.4712 26.7661 50.7495 26.7881 51.0132 26.8174C51.8628 26.8174 52.6831 26.7368 53.4741 26.5757C54.2798 26.4146 55.0049 26.0996 55.6494 25.6309C56.3086 25.1621 56.8506 24.4956 57.2754 23.6313C57.7148 22.7524 57.9858 21.5952 58.0884 20.1597ZM86.7847 44.8569C87.1069 44.8276 87.4146 44.6665 87.7075 44.3735C87.9565 44.1245 88.2129 43.729 88.4766 43.187C88.7402 42.6304 88.96 41.8394 89.1357 40.814L89.9487 40.9019C89.7437 42.1177 89.4653 43.0479 89.1138 43.6924C88.7769 44.3369 88.4326 44.8057 88.0811 45.0986C87.6709 45.4502 87.2388 45.6406 86.7847 45.6699C86.4331 45.6699 85.979 45.6187 85.4224 45.5161C84.8804 45.4136 84.3384 45.2305 83.7964 44.9668C83.2544 44.7178 82.7563 44.3809 82.3022 43.9561C81.8481 43.5312 81.5332 42.9893 81.3574 42.3301C80.7568 43.3408 79.9512 44.1611 78.9404 44.791C77.9297 45.4355 76.7798 45.7578 75.4907 45.7578C74.8462 45.7578 74.1943 45.6846 73.5352 45.5381C72.876 45.3916 72.2681 45.1499 71.7114 44.813C71.1694 44.4761 70.7227 44.0366 70.3711 43.4946C70.0342 42.938 69.8657 42.2495 69.8657 41.4292C69.8657 40.4038 70.0635 39.5176 70.459 38.7705C70.8691 38.0088 71.4111 37.3789 72.085 36.8809C72.7588 36.3682 73.5278 35.9873 74.3921 35.7383C75.2563 35.4893 76.1499 35.3647 77.0728 35.3647C77.7026 35.3647 78.3105 35.438 78.8965 35.5845C79.4971 35.731 80.105 35.9873 80.7202 36.3535C80.7495 35.6064 80.8081 34.8594 80.896 34.1123C80.9985 33.3652 81.0864 32.6694 81.1597 32.0249C81.2036 31.644 81.2329 31.3364 81.2476 31.1021C81.2769 30.8677 81.2988 30.6772 81.3135 30.5308C81.3281 30.3843 81.3354 30.2744 81.3354 30.2012C81.3501 30.1279 81.3574 30.062 81.3574 30.0034C81.3574 28.6704 81.1157 27.6084 80.6323 26.8174C80.1489 26.0264 79.5044 25.6309 78.6987 25.6309C78.3179 25.6602 77.9297 25.7261 77.5342 25.8286C77.1387 25.9312 76.7798 26.0776 76.4575 26.2681C76.1353 26.4438 75.8716 26.6709 75.6665 26.9492C75.4614 27.2129 75.3589 27.5278 75.3589 27.894C75.3589 28.2896 75.4834 28.6045 75.7324 28.8389C75.9814 29.0586 76.2524 29.2856 76.5454 29.52C76.853 29.7397 77.1313 29.9961 77.3804 30.2891C77.6294 30.582 77.7539 30.9849 77.7539 31.4976C77.7539 32.0396 77.666 32.4937 77.4902 32.8599C77.3291 33.2114 77.1094 33.4971 76.8311 33.7168C76.5527 33.9365 76.2378 34.0977 75.8862 34.2002C75.5347 34.2881 75.1831 34.332 74.8315 34.332C74.4653 34.332 74.0991 34.2734 73.7329 34.1562C73.3813 34.0244 73.0591 33.8267 72.7661 33.563C72.4878 33.2993 72.2534 32.9551 72.063 32.5303C71.8872 32.1055 71.7993 31.5928 71.7993 30.9922C71.7993 30.1865 71.9971 29.4175 72.3926 28.6851C72.7881 27.9526 73.3081 27.3081 73.9526 26.7515C74.5972 26.1948 75.3296 25.748 76.1499 25.4111C76.9702 25.0596 77.8052 24.8691 78.6548 24.8398C79.4458 24.8398 80.3027 25.001 81.2256 25.3232C82.1631 25.6455 83.0347 26.1948 83.8403 26.9712C84.6606 27.7476 85.3418 28.7876 85.8838 30.0913C86.4258 31.395 86.6968 33.0283 86.6968 34.9912C86.6968 35.9141 86.6602 36.793 86.5869 37.6279C86.5283 38.4629 86.4624 39.2393 86.3892 39.957C86.3159 40.6602 86.2427 41.3047 86.1694 41.8906C86.1108 42.4766 86.0815 42.9819 86.0815 43.4067C86.0815 43.8315 86.1182 44.1685 86.1914 44.4175C86.2793 44.6665 86.4478 44.813 86.6968 44.8569H86.7847ZM80.9839 41.1655C80.896 40.6675 80.8301 40.1475 80.7861 39.6055C80.7422 39.0488 80.7202 38.4922 80.7202 37.9355V37.3423C80.3101 37.0054 79.8633 36.7563 79.3799 36.5952C78.9111 36.4341 78.4863 36.3535 78.1055 36.3535C77.1826 36.3535 76.4795 36.7344 75.9961 37.4961C75.5127 38.2578 75.271 39.2686 75.271 40.5283C75.271 41.0557 75.3223 41.5464 75.4248 42.0005C75.542 42.4546 75.6958 42.8501 75.8862 43.187C76.0913 43.5093 76.333 43.7656 76.6113 43.9561C76.9043 44.1318 77.2266 44.2197 77.5781 44.2197C77.9297 44.2197 78.2666 44.1318 78.5889 43.9561C78.9258 43.7803 79.2407 43.5532 79.5337 43.2749C79.8267 42.9819 80.0977 42.6523 80.3467 42.2861C80.5957 41.9199 80.8081 41.5464 80.9839 41.1655ZM90.2783 43.3628H93.6621L94.2334 14.9741L90.3662 14.8862V14.0732L100.803 14.249L100.364 34.9473L110.493 25.499L105.308 25.4111V24.5981L116.162 24.7959V25.5869L111.526 25.543L111.614 25.5869L105.989 30.8604L114.141 43.4067H117.063V44.2197H104.275V43.4067H106.714L101.528 35.0352L100.364 36.1338L100.188 43.3628H102.209V44.1758H90.2783V43.3628ZM135.564 32.9697C135.564 33.7461 135.315 34.4492 134.817 35.0791C134.319 35.6943 133.674 36.2217 132.883 36.6611C132.107 37.1006 131.235 37.4521 130.269 37.7158C129.316 37.9648 128.379 38.0967 127.456 38.1113C127.397 38.1113 127.266 38.104 127.061 38.0894C126.855 38.0747 126.606 38.0308 126.313 37.9575C126.021 37.8696 125.691 37.7378 125.325 37.562C124.958 37.3862 124.592 37.1299 124.226 36.793C124.27 38.0967 124.387 39.2173 124.578 40.1548C124.783 41.0776 125.046 41.8394 125.369 42.4399C125.706 43.0259 126.094 43.458 126.533 43.7363C126.987 44 127.478 44.1318 128.005 44.1318C128.313 44.1318 128.723 44.0293 129.236 43.8242C129.763 43.6191 130.305 43.3042 130.862 42.8794C131.433 42.4546 131.99 41.9126 132.532 41.2534C133.074 40.5942 133.528 39.8032 133.894 38.8804L134.531 37.2544L135.322 37.5181L134.971 38.5068C134.648 39.3711 134.224 40.1914 133.696 40.9678C133.169 41.7441 132.554 42.4399 131.851 43.0552C131.162 43.6558 130.393 44.1392 129.543 44.5054C128.694 44.8862 127.786 45.106 126.819 45.1646C125.134 45.106 123.706 44.8057 122.534 44.2637C121.362 43.7217 120.41 43.0332 119.678 42.1982C118.945 41.3633 118.411 40.4331 118.074 39.4077C117.751 38.3823 117.59 37.3496 117.59 36.3096C117.59 35.6211 117.693 34.874 117.898 34.0684C118.118 33.248 118.433 32.4277 118.843 31.6074C119.253 30.7725 119.751 29.9668 120.337 29.1904C120.938 28.4141 121.611 27.7256 122.358 27.125C123.12 26.5244 123.948 26.0483 124.841 25.6968C125.75 25.3306 126.724 25.1475 127.764 25.1475C128.716 25.1768 129.565 25.3232 130.312 25.5869C131.074 25.8359 131.741 26.1729 132.312 26.5977C132.898 27.0078 133.396 27.4766 133.806 28.0039C134.216 28.5312 134.553 29.0806 134.817 29.6519C135.081 30.2085 135.271 30.7798 135.388 31.3657C135.505 31.937 135.564 32.4717 135.564 32.9697ZM127.412 25.9604C126.943 25.9897 126.504 26.2534 126.094 26.7515C125.698 27.2495 125.354 27.9307 125.061 28.7949C124.783 29.6445 124.563 30.6479 124.402 31.8052C124.241 32.9624 124.16 34.2075 124.16 35.5405C124.526 35.9653 124.893 36.2949 125.259 36.5293C125.625 36.7637 125.962 36.9395 126.27 37.0566C126.577 37.1592 126.833 37.2251 127.039 37.2544C127.244 37.2837 127.368 37.2983 127.412 37.2983C127.983 37.2837 128.452 37.1592 128.818 36.9248C129.199 36.6904 129.492 36.3682 129.697 35.958C129.917 35.5479 130.071 35.0571 130.159 34.4858C130.247 33.9146 130.291 33.2773 130.291 32.5742C130.291 31.6953 130.232 30.8604 130.115 30.0693C130.012 29.2637 129.844 28.5605 129.609 27.96C129.39 27.3447 129.097 26.8613 128.73 26.5098C128.364 26.1436 127.925 25.9604 127.412 25.9604ZM147.166 30.0474C147.605 29.1831 148.074 28.502 148.572 28.0039C149.07 27.5059 149.531 27.1177 149.956 26.8394C150.439 26.5317 150.93 26.312 151.428 26.1802C152.043 26.1216 152.571 26.1802 153.01 26.356C153.464 26.5171 153.831 26.7588 154.109 27.0811C154.402 27.4033 154.614 27.7842 154.746 28.2236C154.878 28.6631 154.944 29.1245 154.944 29.6079C154.944 30.0767 154.893 30.5527 154.79 31.0361C154.702 31.5195 154.578 31.981 154.417 32.4204C154.27 32.8599 154.087 33.2627 153.867 33.6289C153.662 33.9951 153.45 34.2881 153.23 34.5078H153.274C152.849 34.9619 152.446 35.2769 152.065 35.4526C151.685 35.6284 151.311 35.7163 150.945 35.7163C150.286 35.7163 149.751 35.5112 149.341 35.1011C148.931 34.6909 148.726 34.1343 148.726 33.4312C148.726 32.8892 148.85 32.2959 149.099 31.6514C149.348 31.0068 149.766 30.4136 150.352 29.8716C150.732 29.5493 151.128 29.2856 151.538 29.0806C151.89 28.9048 152.285 28.7656 152.725 28.6631C153.164 28.5605 153.604 28.5898 154.043 28.751C153.926 28.1943 153.669 27.7402 153.274 27.3887C152.878 27.0371 152.292 26.9053 151.516 26.9932C150.959 27.1104 150.417 27.3667 149.89 27.7622C149.436 28.0991 148.96 28.6045 148.462 29.2783C147.979 29.9375 147.561 30.8384 147.209 31.981L147.429 43.6045L151.208 43.4946V44.3076L137.673 44.5933V43.7803L140.596 43.7363L140.771 27.5205L138.376 27.3887V26.5757L147.122 26.9492L147.166 30.0474ZM173.357 25.8726H180.74V26.6855H177.268C174.866 31.666 173.013 35.416 171.709 37.9355C170.947 39.415 170.281 40.6748 169.709 41.7148C169.387 42.3301 169.028 43.0405 168.633 43.8462C168.237 44.6519 167.791 45.4795 167.292 46.3291C166.809 47.1934 166.274 48.0356 165.688 48.856C165.103 49.6909 164.465 50.4307 163.777 51.0752C163.103 51.7344 162.371 52.2617 161.58 52.6572C160.803 53.0674 159.976 53.2725 159.097 53.2725C158.599 53.2725 158.137 53.2065 157.712 53.0747C157.288 52.9429 156.907 52.7744 156.57 52.5693C156.233 52.3789 155.947 52.1592 155.713 51.9102C155.493 51.6611 155.332 51.4268 155.229 51.207C155.068 50.8408 154.98 50.4014 154.966 49.8887C154.937 49.376 155.024 48.8926 155.229 48.4385C155.435 47.9844 155.764 47.5962 156.218 47.2739C156.687 46.9663 157.332 46.8198 158.152 46.8345C158.738 46.8491 159.25 46.959 159.69 47.1641C160.129 47.3691 160.54 47.5889 160.92 47.8232C161.301 48.0723 161.675 48.2993 162.041 48.5044C162.422 48.7241 162.832 48.8413 163.271 48.856C163.799 48.856 164.26 48.7168 164.656 48.4385C165.051 48.1602 165.403 47.8086 165.71 47.3838C166.018 46.959 166.296 46.4976 166.545 45.9995C166.794 45.5161 167.036 45.062 167.271 44.6372L158.24 26.7295L155.889 26.6855V25.8726L169.072 26.1362V26.9492L166.194 26.9053L171.204 37.1665C171.833 35.9214 172.573 34.4419 173.423 32.728C174.287 31.0142 175.269 29 176.367 26.6855H173.357V25.8726ZM208.381 43.8682C208.806 43.8682 209.312 43.8608 209.897 43.8462C210.483 43.8315 211.113 43.751 211.787 43.6045C212.461 43.458 213.164 43.2236 213.896 42.9014C214.629 42.5791 215.354 42.1177 216.072 41.5171C216.804 40.9019 217.515 40.1182 218.203 39.166C218.892 38.2139 219.529 37.0347 220.115 35.6284L220.84 35.8921C220.239 37.3276 219.587 38.5435 218.884 39.5396C218.196 40.521 217.478 41.3413 216.731 42.0005C215.999 42.645 215.259 43.1504 214.512 43.5166C213.765 43.8828 213.04 44.1465 212.336 44.3076C211.633 44.4834 210.967 44.5859 210.337 44.6152C209.722 44.6592 209.172 44.6812 208.689 44.6812C208.25 44.6812 207.686 44.6592 206.997 44.6152C206.323 44.5859 205.576 44.498 204.756 44.3516C203.936 44.2051 203.071 43.9854 202.163 43.6924C201.27 43.3994 200.383 43.0039 199.504 42.5059C198.625 41.9932 197.791 41.3633 197 40.6162C196.208 39.8545 195.513 38.939 194.912 37.8696C194.312 36.7856 193.828 35.5259 193.462 34.0903C193.11 32.6548 192.935 31.0068 192.935 29.1465C192.935 26.7881 193.206 24.7446 193.748 23.0161C194.29 21.2729 195.007 19.7935 195.901 18.5776C196.809 17.3472 197.842 16.3438 198.999 15.5674C200.156 14.7764 201.343 14.1611 202.559 13.7217C203.774 13.2676 204.976 12.9526 206.162 12.7769C207.349 12.6011 208.418 12.5059 209.37 12.4912H209.678C211.494 12.4912 213.142 12.7402 214.622 13.2383C216.116 13.7217 217.39 14.3735 218.445 15.1938C219.514 16.0142 220.334 16.9517 220.906 18.0063C221.492 19.061 221.785 20.1523 221.785 21.2803C221.785 21.8223 221.682 22.3276 221.477 22.7964C221.272 23.2505 221.001 23.646 220.664 23.9829C220.342 24.3198 219.961 24.5835 219.521 24.7739C219.082 24.9644 218.635 25.0596 218.181 25.0596C217.712 25.0449 217.236 24.9277 216.753 24.708C216.284 24.4883 215.852 24.1807 215.457 23.7852C215.061 23.3896 214.717 22.9062 214.424 22.335C214.146 21.7637 213.962 21.1265 213.875 20.4233L213.721 19.3906C213.633 18.7314 213.516 18.0503 213.369 17.3472C213.223 16.6294 212.996 15.9702 212.688 15.3696C212.395 14.769 212.007 14.2783 211.523 13.8975C211.04 13.502 210.425 13.3042 209.678 13.3042H209.414C208.799 13.3481 208.169 13.502 207.524 13.7656C206.88 14.0146 206.25 14.4102 205.635 14.9521C205.034 15.4795 204.456 16.1606 203.899 16.9956C203.357 17.8159 202.881 18.812 202.471 19.9839C202.061 21.1411 201.731 22.4961 201.482 24.0488C201.248 25.5869 201.13 27.3301 201.13 29.2783C201.13 31.2412 201.233 32.9624 201.438 34.4419C201.658 35.9067 201.943 37.1812 202.295 38.2651C202.661 39.3345 203.079 40.228 203.547 40.9458C204.031 41.6489 204.529 42.2129 205.042 42.6377C205.569 43.0625 206.096 43.3701 206.624 43.5605C207.151 43.751 207.656 43.8535 208.14 43.8682H208.381ZM232.903 30.0474C233.342 29.1831 233.811 28.502 234.309 28.0039C234.807 27.5059 235.269 27.1177 235.693 26.8394C236.177 26.5317 236.667 26.312 237.166 26.1802C237.781 26.1216 238.308 26.1802 238.748 26.356C239.202 26.5171 239.568 26.7588 239.846 27.0811C240.139 27.4033 240.352 27.7842 240.483 28.2236C240.615 28.6631 240.681 29.1245 240.681 29.6079C240.681 30.0767 240.63 30.5527 240.527 31.0361C240.439 31.5195 240.315 31.981 240.154 32.4204C240.007 32.8599 239.824 33.2627 239.604 33.6289C239.399 33.9951 239.187 34.2881 238.967 34.5078H239.011C238.586 34.9619 238.184 35.2769 237.803 35.4526C237.422 35.6284 237.048 35.7163 236.682 35.7163C236.023 35.7163 235.488 35.5112 235.078 35.1011C234.668 34.6909 234.463 34.1343 234.463 33.4312C234.463 32.8892 234.587 32.2959 234.836 31.6514C235.085 31.0068 235.503 30.4136 236.089 29.8716C236.47 29.5493 236.865 29.2856 237.275 29.0806C237.627 28.9048 238.022 28.7656 238.462 28.6631C238.901 28.5605 239.341 28.5898 239.78 28.751C239.663 28.1943 239.407 27.7402 239.011 27.3887C238.616 27.0371 238.03 26.9053 237.253 26.9932C236.697 27.1104 236.155 27.3667 235.627 27.7622C235.173 28.0991 234.697 28.6045 234.199 29.2783C233.716 29.9375 233.298 30.8384 232.947 31.981L233.167 43.6045L236.946 43.4946V44.3076L223.411 44.5933V43.7803L226.333 43.7363L226.509 27.5205L224.114 27.3887V26.5757L232.859 26.9492L232.903 30.0474ZM263.906 35.936C263.906 36.9468 263.73 37.8916 263.379 38.7705C263.042 39.6348 262.581 40.4331 261.995 41.1655C261.423 41.8833 260.764 42.5278 260.017 43.0991C259.285 43.6558 258.516 44.1245 257.71 44.5054C256.919 44.9009 256.128 45.2012 255.337 45.4062C254.546 45.6113 253.813 45.7139 253.14 45.7139H252.92C252.246 45.6992 251.528 45.5894 250.767 45.3843C250.02 45.1792 249.272 44.8789 248.525 44.4834C247.793 44.1025 247.09 43.6265 246.416 43.0552C245.757 42.4839 245.171 41.8174 244.658 41.0557C244.146 40.2793 243.735 39.415 243.428 38.4629C243.12 37.4961 242.966 36.4341 242.966 35.2769C242.966 34.0903 243.149 33.0063 243.516 32.0249C243.882 31.0288 244.358 30.1426 244.944 29.3662C245.544 28.5898 246.218 27.916 246.965 27.3447C247.727 26.7734 248.489 26.2974 249.25 25.9165C250.027 25.5356 250.767 25.2573 251.47 25.0815C252.188 24.8911 252.81 24.7959 253.337 24.7959H253.513C254.407 24.8252 255.286 24.9863 256.15 25.2793C257.014 25.5576 257.827 25.9458 258.589 26.4438C259.365 26.9419 260.076 27.5352 260.72 28.2236C261.379 28.8975 261.943 29.6445 262.412 30.4648C262.881 31.2852 263.247 32.1567 263.511 33.0796C263.774 34.0024 263.906 34.9546 263.906 35.936ZM256.875 35.5845C256.875 35.2183 256.875 34.7129 256.875 34.0684C256.875 33.4238 256.846 32.7354 256.787 32.0029C256.743 31.2559 256.655 30.5015 256.523 29.7397C256.392 28.978 256.194 28.2896 255.93 27.6743C255.667 27.0591 255.322 26.561 254.897 26.1802C254.487 25.7847 253.967 25.5869 253.337 25.5869C252.136 25.5869 251.184 26.4072 250.481 28.0479C249.792 29.6885 249.448 32.1714 249.448 35.4966C249.448 37.1519 249.514 38.5728 249.646 39.7593C249.792 40.9458 250.012 41.9199 250.305 42.6816C250.598 43.4434 250.979 44 251.448 44.3516C251.917 44.7178 252.48 44.9009 253.14 44.9009H253.337C253.967 44.8716 254.487 44.6738 254.897 44.3076C255.322 43.9414 255.667 43.3848 255.93 42.6377C256.208 41.876 256.414 40.9165 256.545 39.7593C256.692 38.6021 256.802 37.2104 256.875 35.5845Z" fill="#3D1C00"/>
<path d="M55.47 74.33C55.34 74.36 55.225 74.375 55.125 74.375C55.035 74.375 54.96 74.36 54.9 74.33C54.84 74.3 54.81 74.26 54.81 74.21C54.81 74.05 55.015 73.905 55.425 73.775C57.575 73.105 59.285 72.04 60.555 70.58C61.835 69.11 62.595 67.39 62.835 65.42C62.845 65.24 62.805 65.105 62.715 65.015C62.625 64.915 62.495 64.865 62.325 64.865H60.015C59.745 64.865 59.54 65.005 59.4 65.285C58.92 66.255 58.38 67.085 57.78 67.775C57.18 68.465 56.57 68.98 55.95 69.32C55.76 69.42 55.61 69.47 55.5 69.47C55.38 69.47 55.32 69.42 55.32 69.32C55.32 69.25 55.355 69.165 55.425 69.065C55.495 68.965 55.595 68.87 55.725 68.78C56.355 68.33 56.885 67.775 57.315 67.115C57.755 66.445 58.08 65.775 58.29 65.105C58.51 64.435 58.62 63.855 58.62 63.365C58.62 62.975 58.55 62.725 58.41 62.615C58.27 62.515 58.2 62.415 58.2 62.315C58.2 62.205 58.29 62.15 58.47 62.15C58.59 62.15 58.725 62.18 58.875 62.24C59.675 62.57 60.045 62.91 59.985 63.26L59.94 63.515C59.92 63.615 59.91 63.68 59.91 63.71C59.91 63.83 59.95 63.925 60.03 63.995C60.11 64.065 60.225 64.095 60.375 64.085L61.095 64.07C61.575 64.07 61.96 64.06 62.25 64.04C62.55 64.01 62.75 63.96 62.85 63.89C63.03 63.77 63.21 63.71 63.39 63.71C63.59 63.71 63.78 63.77 63.96 63.89C64.15 64 64.3 64.14 64.41 64.31C64.53 64.47 64.59 64.62 64.59 64.76C64.59 64.83 64.565 64.9 64.515 64.97C64.425 65.07 64.335 65.225 64.245 65.435C64.165 65.635 64.045 65.955 63.885 66.395C63.655 67.055 63.445 67.615 63.255 68.075C63.075 68.535 62.835 69 62.535 69.47C61.865 70.52 60.92 71.49 59.7 72.38C58.48 73.26 57.07 73.91 55.47 74.33ZM71.025 72.77C71.025 72.29 70.975 70.925 70.875 68.675C70.825 67.345 70.7 66.305 70.5 65.555C70.3 64.805 70.03 64.295 69.69 64.025C69.56 63.925 69.495 63.835 69.495 63.755C69.495 63.635 69.62 63.575 69.87 63.575C70.04 63.575 70.295 63.645 70.635 63.785C70.985 63.925 71.245 64.09 71.415 64.28C71.515 64.39 71.63 64.48 71.76 64.55C71.9 64.61 72.04 64.635 72.18 64.625C72.25 64.615 72.355 64.61 72.495 64.61C73.105 64.55 73.905 64.505 74.895 64.475C75.905 64.425 76.665 64.375 77.175 64.325C77.695 64.275 78.05 64.225 78.24 64.175C78.43 64.125 78.61 64.06 78.78 63.98C78.87 63.93 78.98 63.905 79.11 63.905C79.31 63.905 79.52 63.97 79.74 64.1C79.96 64.23 80.14 64.39 80.28 64.58C80.43 64.76 80.505 64.92 80.505 65.06C80.505 65.21 80.415 65.305 80.235 65.345C79.995 65.395 79.755 66.085 79.515 67.415C79.275 68.735 79.09 69.995 78.96 71.195C78.95 71.305 78.965 71.395 79.005 71.465C79.045 71.525 79.115 71.59 79.215 71.66C79.305 71.74 79.375 71.825 79.425 71.915C79.485 72.005 79.515 72.085 79.515 72.155C79.515 72.285 79.44 72.35 79.29 72.35H72.495C72.335 72.35 72.215 72.39 72.135 72.47C72.065 72.55 72.01 72.68 71.97 72.86C71.91 73.12 71.77 73.29 71.55 73.37C71.49 73.39 71.445 73.4 71.415 73.4C71.305 73.4 71.21 73.35 71.13 73.25C71.06 73.14 71.025 72.98 71.025 72.77ZM71.865 71.3C71.915 71.63 72.095 71.795 72.405 71.795L73.125 71.81C73.655 71.81 74.41 71.785 75.39 71.735C76.1 71.705 76.865 71.65 77.685 71.57C78.005 71.55 78.18 71.37 78.21 71.03C78.28 70.24 78.39 69.175 78.54 67.835C78.56 67.605 78.59 67.27 78.63 66.83C78.68 66.39 78.705 66.07 78.705 65.87C78.705 65.61 78.665 65.44 78.585 65.36C78.505 65.28 78.33 65.22 78.06 65.18C77.81 65.15 77.48 65.135 77.07 65.135C76.73 65.135 76.03 65.155 74.97 65.195L72.105 65.285C71.765 65.305 71.595 65.48 71.595 65.81L71.58 66.635C71.58 67.175 71.595 67.74 71.625 68.33C71.665 69.12 71.745 70.11 71.865 71.3ZM87.015 74.3C86.885 74.33 86.77 74.345 86.67 74.345C86.51 74.345 86.43 74.3 86.43 74.21C86.43 74.15 86.465 74.09 86.535 74.03C86.615 73.97 86.715 73.92 86.835 73.88C88.155 73.49 89.305 72.855 90.285 71.975C91.275 71.095 92.035 70.095 92.565 68.975C93.105 67.845 93.4 66.725 93.45 65.615C93.48 65.025 93.195 64.73 92.595 64.73L90.93 64.76L89.715 64.79L86.955 64.85C86.795 64.85 86.665 64.895 86.565 64.985C86.475 65.065 86.43 65.18 86.43 65.33C86.43 65.76 86.445 66.185 86.475 66.605C86.505 67.075 86.545 67.535 86.595 67.985C86.635 68.445 86.655 68.715 86.655 68.795C86.655 69.015 86.58 69.215 86.43 69.395C86.29 69.575 86.135 69.665 85.965 69.665C85.825 69.665 85.705 69.585 85.605 69.425C85.515 69.265 85.47 69.015 85.47 68.675C85.47 68.575 85.48 68.345 85.5 67.985C85.54 67.405 85.55 66.935 85.53 66.575C85.45 64.825 85.18 63.775 84.72 63.425C84.57 63.305 84.495 63.205 84.495 63.125C84.495 63.025 84.585 62.975 84.765 62.975C84.935 62.975 85.15 63.025 85.41 63.125C85.56 63.175 85.715 63.265 85.875 63.395C86.045 63.525 86.19 63.665 86.31 63.815C86.4 63.945 86.49 64.04 86.58 64.1C86.68 64.15 86.8 64.175 86.94 64.175L88.005 64.19C88.925 64.19 89.73 64.175 90.42 64.145C90.98 64.115 91.415 64.075 91.725 64.025C92.035 63.975 92.295 63.9 92.505 63.8C92.725 63.7 92.995 63.55 93.315 63.35C93.445 63.27 93.595 63.23 93.765 63.23C94.005 63.23 94.265 63.295 94.545 63.425C94.825 63.545 95.06 63.695 95.25 63.875C95.45 64.055 95.55 64.225 95.55 64.385C95.55 64.495 95.49 64.59 95.37 64.67C95.21 64.77 95.065 65 94.935 65.36C94.805 65.71 94.645 66.25 94.455 66.98C93.995 68.76 93.14 70.295 91.89 71.585C90.64 72.865 89.015 73.77 87.015 74.3ZM101.7 74.135C101.46 74.135 101.34 74.08 101.34 73.97C101.32 73.82 101.5 73.695 101.88 73.595C102.53 73.445 103.245 73.125 104.025 72.635C104.805 72.145 105.565 71.525 106.305 70.775C106.965 70.105 107.495 69.35 107.895 68.51C108.305 67.66 108.51 66.945 108.51 66.365C108.51 66.185 108.485 66.02 108.435 65.87C108.345 65.69 108.3 65.54 108.3 65.42C108.3 65.33 108.325 65.265 108.375 65.225C108.435 65.185 108.515 65.18 108.615 65.21C108.735 65.25 108.885 65.355 109.065 65.525C109.245 65.685 109.4 65.875 109.53 66.095C109.66 66.305 109.725 66.505 109.725 66.695C109.725 66.885 109.615 67.24 109.395 67.76C109.175 68.28 108.85 68.865 108.42 69.515C108 70.165 107.5 70.78 106.92 71.36C106.29 71.99 105.625 72.515 104.925 72.935C104.225 73.345 103.585 73.65 103.005 73.85C102.435 74.04 102 74.135 101.7 74.135ZM104.58 67.88C104.34 67.88 104.16 67.73 104.04 67.43C103.74 66.65 103.435 66.085 103.125 65.735C103.005 65.585 102.945 65.455 102.945 65.345C102.945 65.235 103.005 65.18 103.125 65.18C103.275 65.18 103.445 65.255 103.635 65.405C104.085 65.695 104.495 66.16 104.865 66.8C104.965 66.99 105.015 67.17 105.015 67.34C105.015 67.5 104.975 67.63 104.895 67.73C104.815 67.83 104.71 67.88 104.58 67.88ZM102.525 69.41C102.415 69.41 102.315 69.37 102.225 69.29C102.135 69.2 102.07 69.075 102.03 68.915C101.89 68.465 101.76 68.11 101.64 67.85C101.52 67.59 101.355 67.325 101.145 67.055C101.025 66.905 100.965 66.78 100.965 66.68C100.965 66.57 101.035 66.515 101.175 66.515C101.295 66.515 101.45 66.595 101.64 66.755C101.95 67.005 102.205 67.255 102.405 67.505C102.615 67.755 102.795 68.05 102.945 68.39C103.005 68.52 103.035 68.645 103.035 68.765C103.035 68.945 102.98 69.1 102.87 69.23C102.77 69.35 102.655 69.41 102.525 69.41ZM116.88 74.15C116.7 74.16 116.56 74.145 116.46 74.105C116.36 74.065 116.31 74.015 116.31 73.955C116.31 73.895 116.36 73.845 116.46 73.805C116.57 73.755 116.715 73.725 116.895 73.715C117.725 73.685 118.495 73.455 119.205 73.025C119.925 72.595 120.48 72.04 120.87 71.36C121.42 70.38 121.72 69.07 121.77 67.43C121.78 67.26 121.735 67.13 121.635 67.04C121.545 66.94 121.41 66.89 121.23 66.89C120.79 66.89 120.43 66.895 120.15 66.905L119.28 66.935C118.9 66.955 118.715 67.135 118.725 67.475L118.83 69.215C118.84 69.385 118.8 69.55 118.71 69.71C118.62 69.87 118.505 70 118.365 70.1C118.235 70.2 118.115 70.25 118.005 70.25C117.825 70.25 117.735 70.13 117.735 69.89C117.725 69.83 117.725 69.685 117.735 69.455C117.745 69.215 117.755 69.005 117.765 68.825L117.81 67.595C117.82 67.415 117.77 67.28 117.66 67.19C117.56 67.1 117.415 67.07 117.225 67.1C116.755 67.16 116.36 67.22 116.04 67.28C115.61 67.36 115.295 67.4 115.095 67.4C114.895 67.4 114.725 67.365 114.585 67.295C114.275 67.155 114.03 66.96 113.85 66.71C113.68 66.46 113.595 66.245 113.595 66.065C113.595 65.905 113.655 65.825 113.775 65.825C113.875 65.825 113.99 65.885 114.12 66.005C114.33 66.185 114.7 66.305 115.23 66.365C115.76 66.425 116.44 66.45 117.27 66.44C117.45 66.43 117.58 66.38 117.66 66.29C117.75 66.19 117.79 66.05 117.78 65.87C117.73 65.08 117.66 64.51 117.57 64.16C117.49 63.8 117.33 63.565 117.09 63.455C116.87 63.355 116.76 63.255 116.76 63.155C116.76 63.065 116.85 63.02 117.03 63.02C117.35 63.02 117.655 63.075 117.945 63.185C118.235 63.295 118.46 63.44 118.62 63.62C118.79 63.8 118.855 63.985 118.815 64.175C118.715 64.655 118.665 65.22 118.665 65.87C118.665 66.03 118.705 66.155 118.785 66.245C118.875 66.335 119 66.38 119.16 66.38C119.58 66.38 119.905 66.375 120.135 66.365L121.215 66.35C121.385 66.35 121.515 66.305 121.605 66.215C121.705 66.115 121.75 65.98 121.74 65.81C121.72 65.39 121.68 64.77 121.62 63.95C121.61 63.71 121.56 63.495 121.47 63.305C121.39 63.115 121.305 63.005 121.215 62.975C121.005 62.905 120.9 62.815 120.9 62.705C120.9 62.655 120.93 62.615 120.99 62.585C121.05 62.545 121.135 62.525 121.245 62.525C121.285 62.525 121.365 62.535 121.485 62.555C121.875 62.625 122.2 62.75 122.46 62.93C122.73 63.1 122.89 63.265 122.94 63.425C122.96 63.525 122.97 63.585 122.97 63.605C122.97 63.665 122.94 63.81 122.88 64.04C122.82 64.27 122.79 64.585 122.79 64.985V65.72C122.79 66.09 122.98 66.26 123.36 66.23C123.81 66.19 124.17 66.145 124.44 66.095C124.48 66.095 124.585 66.085 124.755 66.065C124.935 66.035 125.09 66.03 125.22 66.05C125.39 66.07 125.565 66.145 125.745 66.275C125.935 66.395 126.09 66.535 126.21 66.695C126.34 66.855 126.405 66.985 126.405 67.085C126.405 67.185 126.34 67.235 126.21 67.235L126.015 67.205C125.625 67.095 124.72 67.005 123.3 66.935C122.96 66.925 122.775 67.095 122.745 67.445C122.695 68.355 122.57 69.18 122.37 69.92C122.17 70.65 121.855 71.31 121.425 71.9C120.955 72.56 120.32 73.085 119.52 73.475C118.73 73.865 117.85 74.09 116.88 74.15ZM131.88 66.305C131.52 65.665 131.205 65.19 130.935 64.88C130.665 64.57 130.315 64.305 129.885 64.085C129.615 63.945 129.48 63.82 129.48 63.71C129.48 63.62 129.58 63.575 129.78 63.575C129.91 63.575 130.055 63.595 130.215 63.635C130.745 63.765 131.235 63.965 131.685 64.235C132.135 64.495 132.5 64.8 132.78 65.15C132.99 65.4 133.095 65.665 133.095 65.945C133.095 66.165 133.03 66.35 132.9 66.5C132.78 66.65 132.635 66.725 132.465 66.725C132.225 66.725 132.03 66.585 131.88 66.305ZM131.58 73.535C131.32 73.535 131.075 73.445 130.845 73.265C130.625 73.085 130.445 72.875 130.305 72.635C130.165 72.395 130.095 72.195 130.095 72.035C130.095 71.905 130.14 71.84 130.23 71.84C130.32 71.84 130.44 71.9 130.59 72.02C130.78 72.18 131.045 72.26 131.385 72.26C132.105 72.26 133.005 71.92 134.085 71.24C135.175 70.56 136.275 69.61 137.385 68.39C138.505 67.16 139.465 65.77 140.265 64.22C140.485 63.81 140.665 63.605 140.805 63.605C140.895 63.605 140.94 63.69 140.94 63.86C140.94 64.07 140.87 64.335 140.73 64.655C140.05 66.225 139.105 67.69 137.895 69.05C136.685 70.41 135.48 71.5 134.28 72.32C133.08 73.13 132.18 73.535 131.58 73.535ZM143.715 70.865C143.595 70.875 143.5 70.85 143.43 70.79C143.36 70.73 143.325 70.66 143.325 70.58C143.325 70.49 143.36 70.415 143.43 70.355C143.5 70.285 143.595 70.255 143.715 70.265C144.375 70.325 144.975 70.355 145.515 70.355H150.315C150.485 70.355 150.615 70.31 150.705 70.22C150.795 70.12 150.84 69.99 150.84 69.83V69.47C150.84 69.3 150.795 69.17 150.705 69.08C150.615 68.99 150.485 68.945 150.315 68.945H147.315C146.995 68.945 146.825 69.06 146.805 69.29C146.795 69.44 146.725 69.56 146.595 69.65C146.465 69.74 146.325 69.785 146.175 69.785C146.065 69.785 145.975 69.755 145.905 69.695C145.845 69.625 145.815 69.54 145.815 69.44L145.83 68.45L145.845 64.52C145.845 64.41 145.92 64.355 146.07 64.355C146.25 64.355 146.395 64.38 146.505 64.43C146.625 64.48 146.745 64.545 146.865 64.625C146.985 64.705 147.07 64.745 147.12 64.745H148.995C149.245 64.745 149.37 64.62 149.37 64.37V64.25C149.37 64.08 149.325 63.95 149.235 63.86C149.145 63.77 149.015 63.725 148.845 63.725H145.65C145.25 63.725 144.765 63.745 144.195 63.785L143.835 63.815C143.735 63.825 143.655 63.8 143.595 63.74C143.545 63.67 143.52 63.595 143.52 63.515C143.52 63.425 143.545 63.35 143.595 63.29C143.655 63.23 143.735 63.205 143.835 63.215L144.195 63.245C144.825 63.285 145.31 63.305 145.65 63.305H148.845C149.015 63.305 149.145 63.26 149.235 63.17C149.325 63.07 149.37 62.94 149.37 62.78V61.94C149.37 61.69 149.44 61.505 149.58 61.385C149.73 61.255 149.915 61.19 150.135 61.19C150.315 61.19 150.465 61.225 150.585 61.295C150.705 61.365 150.765 61.435 150.765 61.505C150.765 61.585 150.685 61.63 150.525 61.64C150.465 61.65 150.415 61.685 150.375 61.745C150.345 61.805 150.33 61.87 150.33 61.94V62.78C150.33 62.94 150.375 63.07 150.465 63.17C150.565 63.26 150.695 63.305 150.855 63.305H153.825C154.025 63.305 154.19 63.265 154.32 63.185C154.46 63.095 154.605 62.975 154.755 62.825C154.975 62.605 155.2 62.495 155.43 62.495C155.56 62.495 155.69 62.535 155.82 62.615C155.97 62.715 156.11 62.835 156.24 62.975C156.35 63.105 156.405 63.23 156.405 63.35C156.405 63.46 156.36 63.55 156.27 63.62C156.18 63.69 156.05 63.725 155.88 63.725L150.855 63.74C150.695 63.74 150.565 63.785 150.465 63.875C150.375 63.965 150.33 64.095 150.33 64.265V64.37C150.33 64.62 150.455 64.745 150.705 64.745H152.22C152.31 64.745 152.395 64.725 152.475 64.685C152.565 64.635 152.645 64.58 152.715 64.52C152.775 64.47 152.84 64.425 152.91 64.385C152.98 64.335 153.05 64.31 153.12 64.31C153.23 64.31 153.37 64.36 153.54 64.46C153.72 64.56 153.875 64.675 154.005 64.805C154.135 64.935 154.2 65.04 154.2 65.12C154.2 65.19 154.185 65.245 154.155 65.285C154.125 65.315 154.08 65.355 154.02 65.405C153.94 65.465 153.875 65.53 153.825 65.6C153.785 65.67 153.765 65.775 153.765 65.915V69.17C153.765 69.36 153.695 69.51 153.555 69.62C153.415 69.73 153.26 69.785 153.09 69.785C152.87 69.785 152.76 69.655 152.76 69.395C152.76 69.095 152.585 68.945 152.235 68.945C152.095 68.945 151.985 68.995 151.905 69.095C151.835 69.185 151.8 69.31 151.8 69.47V69.83C151.8 69.99 151.845 70.12 151.935 70.22C152.035 70.31 152.165 70.355 152.325 70.355H154.29C154.49 70.355 154.685 70.31 154.875 70.22C155.065 70.12 155.225 70.005 155.355 69.875C155.515 69.715 155.68 69.635 155.85 69.635C156.07 69.635 156.3 69.765 156.54 70.025C156.65 70.155 156.705 70.28 156.705 70.4C156.705 70.51 156.66 70.6 156.57 70.67C156.48 70.74 156.35 70.775 156.18 70.775H152.325C152.165 70.775 152.035 70.82 151.935 70.91C151.845 71 151.8 71.13 151.8 71.3V73.955C151.8 74.365 151.7 74.66 151.5 74.84C151.3 75.03 151.035 75.125 150.705 75.125C150.595 75.125 150.52 75.1 150.48 75.05C150.44 75.01 150.4 74.94 150.36 74.84C150.32 74.71 150.26 74.6 150.18 74.51C150.11 74.43 149.985 74.365 149.805 74.315C149.235 74.175 148.835 74.07 148.605 74C148.535 73.98 148.48 73.95 148.44 73.91C148.4 73.86 148.38 73.81 148.38 73.76C148.38 73.69 148.41 73.635 148.47 73.595C148.54 73.555 148.625 73.545 148.725 73.565L149.22 73.685C149.7 73.795 150.025 73.865 150.195 73.895C150.225 73.905 150.275 73.91 150.345 73.91C150.535 73.91 150.665 73.84 150.735 73.7C150.805 73.55 150.84 73.34 150.84 73.07V71.315C150.84 71.145 150.795 71.015 150.705 70.925C150.615 70.835 150.485 70.79 150.315 70.79H145.725C144.725 70.8 144.055 70.825 143.715 70.865ZM146.805 66.065C146.805 66.395 146.975 66.57 147.315 66.59H148.995C149.245 66.59 149.37 66.465 149.37 66.215V65.525C149.37 65.275 149.245 65.15 148.995 65.15H147.33C147.17 65.15 147.04 65.195 146.94 65.285C146.85 65.375 146.805 65.505 146.805 65.675V66.065ZM150.33 66.23C150.33 66.48 150.455 66.605 150.705 66.605H152.295C152.455 66.615 152.58 66.575 152.67 66.485C152.76 66.385 152.805 66.25 152.805 66.08V65.675C152.805 65.505 152.76 65.375 152.67 65.285C152.58 65.195 152.45 65.15 152.28 65.15H150.705C150.455 65.15 150.33 65.275 150.33 65.525V66.23ZM150.33 68.165C150.33 68.415 150.455 68.54 150.705 68.54H152.28C152.45 68.54 152.58 68.495 152.67 68.405C152.76 68.305 152.805 68.175 152.805 68.015V67.61C152.805 67.44 152.765 67.31 152.685 67.22C152.605 67.13 152.495 67.085 152.355 67.085H150.705C150.455 67.085 150.33 67.21 150.33 67.46V68.165ZM146.805 68C146.805 68.16 146.85 68.285 146.94 68.375C147.03 68.465 147.16 68.515 147.33 68.525H148.995C149.245 68.525 149.37 68.4 149.37 68.15V67.475C149.37 67.225 149.245 67.1 148.995 67.1H147.315C146.975 67.12 146.805 67.295 146.805 67.625V68ZM146.385 71.6C146.315 71.56 146.28 71.5 146.28 71.42C146.28 71.37 146.295 71.33 146.325 71.3C146.365 71.27 146.425 71.26 146.505 71.27C147.065 71.36 147.57 71.5 148.02 71.69C148.48 71.87 148.755 72.12 148.845 72.44C148.855 72.47 148.86 72.51 148.86 72.56C148.86 72.69 148.815 72.8 148.725 72.89C148.645 72.97 148.54 73.01 148.41 73.01C148.29 73.01 148.16 72.95 148.02 72.83C147.3 72.16 146.755 71.75 146.385 71.6ZM159.855 74.54C159.855 74.72 159.785 74.865 159.645 74.975C159.515 75.095 159.375 75.155 159.225 75.155C159.125 75.155 159.04 75.12 158.97 75.05C158.91 74.99 158.885 74.9 158.895 74.78V61.61C158.895 61.5 158.97 61.445 159.12 61.445C159.22 61.445 159.32 61.47 159.42 61.52C159.53 61.57 159.62 61.635 159.69 61.715C159.78 61.815 159.855 61.885 159.915 61.925C159.975 61.965 160.05 61.985 160.14 61.985H162.45C162.54 61.985 162.625 61.965 162.705 61.925C162.795 61.875 162.875 61.82 162.945 61.76C163.005 61.71 163.07 61.665 163.14 61.625C163.21 61.575 163.28 61.55 163.35 61.55C163.51 61.55 163.67 61.6 163.83 61.7C164 61.8 164.14 61.915 164.25 62.045C164.37 62.175 164.43 62.28 164.43 62.36C164.43 62.43 164.415 62.485 164.385 62.525C164.355 62.555 164.31 62.595 164.25 62.645C164.17 62.705 164.105 62.77 164.055 62.84C164.015 62.91 163.995 63.015 163.995 63.155V67.235C163.995 67.425 163.925 67.575 163.785 67.685C163.645 67.795 163.49 67.85 163.32 67.85C163.23 67.85 163.15 67.825 163.08 67.775C163.02 67.715 162.99 67.635 162.99 67.535C162.99 67.365 162.945 67.25 162.855 67.19C162.775 67.13 162.645 67.1 162.465 67.1H160.23C159.98 67.1 159.855 67.225 159.855 67.475V74.54ZM165.93 66.815C165.94 66.715 165.945 66.575 165.945 66.395V61.61C165.945 61.5 166.02 61.445 166.17 61.445C166.27 61.445 166.37 61.47 166.47 61.52C166.58 61.57 166.67 61.635 166.74 61.715C166.83 61.815 166.905 61.885 166.965 61.925C167.025 61.965 167.1 61.985 167.19 61.985H169.5C169.59 61.985 169.675 61.965 169.755 61.925C169.845 61.875 169.925 61.82 169.995 61.76C170.055 61.71 170.12 61.665 170.19 61.625C170.26 61.575 170.33 61.55 170.4 61.55C170.56 61.55 170.72 61.6 170.88 61.7C171.05 61.8 171.19 61.915 171.3 62.045C171.42 62.175 171.48 62.28 171.48 62.36C171.48 62.43 171.465 62.485 171.435 62.525C171.405 62.555 171.36 62.595 171.3 62.645C171.22 62.705 171.155 62.77 171.105 62.84C171.065 62.91 171.045 63.015 171.045 63.155L171 72.935V73.97C171 74.37 170.855 74.665 170.565 74.855C170.285 75.045 169.965 75.14 169.605 75.14C169.495 75.14 169.42 75.115 169.38 75.065C169.35 75.015 169.32 74.93 169.29 74.81C169.25 74.66 169.195 74.535 169.125 74.435C169.055 74.345 168.93 74.27 168.75 74.21L167.79 73.91C167.71 73.89 167.645 73.855 167.595 73.805C167.555 73.755 167.535 73.7 167.535 73.64C167.535 73.58 167.555 73.53 167.595 73.49C167.645 73.45 167.71 73.43 167.79 73.43C167.82 73.43 167.875 73.44 167.955 73.46L168.27 73.535C168.55 73.615 168.875 73.69 169.245 73.76C169.275 73.77 169.325 73.775 169.395 73.775C169.605 73.775 169.765 73.7 169.875 73.55C169.985 73.39 170.04 73.185 170.04 72.935V67.535C170.04 67.365 169.995 67.25 169.905 67.19C169.825 67.13 169.695 67.1 169.515 67.1H167.25C167.17 67.1 167.11 67.12 167.07 67.16C167.03 67.2 166.985 67.255 166.935 67.325C166.885 67.395 166.84 67.46 166.8 67.52C166.74 67.61 166.66 67.68 166.56 67.73C166.46 67.77 166.365 67.79 166.275 67.79C166.175 67.79 166.09 67.76 166.02 67.7C165.95 67.64 165.915 67.555 165.915 67.445L165.93 66.815ZM159.855 63.95C159.855 64.2 159.98 64.325 160.23 64.325H162.66C162.91 64.325 163.035 64.2 163.035 63.95V62.915C163.035 62.745 162.99 62.615 162.9 62.525C162.81 62.435 162.68 62.39 162.51 62.39H160.23C159.98 62.39 159.855 62.515 159.855 62.765V63.95ZM167.28 62.42C167.03 62.42 166.905 62.545 166.905 62.795V63.95C166.905 64.2 167.03 64.325 167.28 64.325H169.71C169.96 64.325 170.085 64.2 170.085 63.95V62.915C170.085 62.745 170.04 62.615 169.95 62.525C169.86 62.435 169.73 62.39 169.56 62.39L167.28 62.42ZM159.855 66.305C159.855 66.555 159.98 66.68 160.23 66.68L162.51 66.695C162.68 66.695 162.81 66.65 162.9 66.56C162.99 66.46 163.035 66.33 163.035 66.17V65.135C163.035 64.885 162.91 64.76 162.66 64.76L160.23 64.745C159.98 64.745 159.855 64.87 159.855 65.12V66.305ZM166.905 66.305C166.905 66.555 167.03 66.68 167.28 66.68L169.56 66.695C169.73 66.695 169.86 66.65 169.95 66.56C170.04 66.46 170.085 66.33 170.085 66.17V65.135C170.085 64.885 169.96 64.76 169.71 64.76L167.28 64.745C167.03 64.745 166.905 64.87 166.905 65.12V66.305ZM184.695 65.69C184.615 65.6 184.55 65.485 184.5 65.345C184.43 65.175 184.34 65.03 184.23 64.91C184.12 64.78 183.915 64.63 183.615 64.46C183.505 64.39 183.45 64.32 183.45 64.25C183.45 64.15 183.515 64.1 183.645 64.1C183.725 64.1 183.825 64.13 183.945 64.19C184.525 64.46 184.945 64.715 185.205 64.955C185.465 65.195 185.595 65.4 185.595 65.57C185.595 65.67 185.555 65.75 185.475 65.81C185.395 65.87 185.295 65.9 185.175 65.9C184.985 65.9 184.825 65.83 184.695 65.69ZM183.36 66.53C183.29 66.42 183.24 66.31 183.21 66.2C183.14 66.01 183.05 65.85 182.94 65.72C182.83 65.58 182.62 65.415 182.31 65.225C182.2 65.145 182.145 65.07 182.145 65C182.145 64.96 182.16 64.93 182.19 64.91C182.23 64.88 182.28 64.865 182.34 64.865C182.42 64.865 182.525 64.895 182.655 64.955C183.215 65.245 183.62 65.515 183.87 65.765C184.12 66.005 184.245 66.215 184.245 66.395C184.245 66.505 184.2 66.595 184.11 66.665C184.03 66.725 183.93 66.755 183.81 66.755C183.61 66.755 183.46 66.68 183.36 66.53ZM184.815 71.84C184.275 71.37 183.795 70.915 183.375 70.475C182.965 70.035 182.41 69.415 181.71 68.615C181.59 68.475 181.31 68.155 180.87 67.655C180.44 67.155 179.985 66.65 179.505 66.14C179.385 66.01 179.285 65.915 179.205 65.855C179.135 65.795 179.05 65.765 178.95 65.765C178.69 65.765 178.365 66.05 177.975 66.62L177.18 67.805C176.71 68.515 176.34 69.06 176.07 69.44C175.8 69.81 175.595 70.045 175.455 70.145C175.265 70.285 175.065 70.355 174.855 70.355C174.625 70.355 174.365 70.28 174.075 70.13C173.935 70.06 173.82 69.985 173.73 69.905C173.64 69.815 173.595 69.735 173.595 69.665C173.595 69.505 173.78 69.44 174.15 69.47C174.5 69.49 174.9 69.27 175.35 68.81C175.81 68.35 176.41 67.65 177.15 66.71L177.6 66.125C177.89 65.755 178.14 65.49 178.35 65.33C178.56 65.16 178.75 65.075 178.92 65.075C179.08 65.075 179.24 65.135 179.4 65.255C179.56 65.365 179.765 65.545 180.015 65.795L181.11 66.89C182.26 68.05 183.175 68.94 183.855 69.56C184.545 70.17 185.3 70.735 186.12 71.255C186.49 71.485 186.675 71.695 186.675 71.885C186.675 71.995 186.605 72.085 186.465 72.155C186.335 72.215 186.17 72.245 185.97 72.245C185.77 72.245 185.565 72.215 185.355 72.155C185.155 72.085 184.975 71.98 184.815 71.84ZM190.2 69.29C189.97 69.29 189.735 69.215 189.495 69.065C189.255 68.905 189.05 68.72 188.88 68.51C188.72 68.3 188.64 68.125 188.64 67.985C188.64 67.865 188.705 67.805 188.835 67.805C188.915 67.805 189.055 67.835 189.255 67.895C189.695 68.025 190.395 68.12 191.355 68.18C192.325 68.24 193.27 68.27 194.19 68.27L194.925 68.255C196.135 68.225 197.07 68.165 197.73 68.075C198.4 67.975 199 67.865 199.53 67.745C199.73 67.695 199.86 67.67 199.92 67.67C200.13 67.67 200.345 67.735 200.565 67.865C200.795 67.995 200.985 68.15 201.135 68.33C201.285 68.51 201.36 68.665 201.36 68.795C201.36 68.985 201.19 69.065 200.85 69.035C199.35 68.915 197.855 68.855 196.365 68.855C195.825 68.855 194.805 68.9 193.305 68.99C191.815 69.08 190.855 69.17 190.425 69.26C190.325 69.28 190.25 69.29 190.2 69.29ZM205.17 74.48C204.93 74.6 204.755 74.66 204.645 74.66C204.535 74.66 204.48 74.625 204.48 74.555C204.48 74.495 204.52 74.42 204.6 74.33C204.69 74.25 204.815 74.165 204.975 74.075C205.445 73.825 205.945 73.38 206.475 72.74C207.015 72.09 207.515 71.285 207.975 70.325C208.445 69.355 208.805 68.3 209.055 67.16C209.065 67.13 209.07 67.085 209.07 67.025C209.07 66.865 209.02 66.75 208.92 66.68C208.82 66.61 208.68 66.59 208.5 66.62C208.09 66.69 207.69 66.775 207.3 66.875C206.9 66.965 206.64 67.01 206.52 67.01C206.38 67.01 206.245 66.985 206.115 66.935C205.995 66.885 205.855 66.795 205.695 66.665C205.525 66.525 205.38 66.365 205.26 66.185C205.15 66.005 205.095 65.855 205.095 65.735C205.095 65.635 205.145 65.585 205.245 65.585C205.355 65.585 205.49 65.64 205.65 65.75C205.9 65.9 206.465 65.975 207.345 65.975C207.785 65.975 208.255 65.96 208.755 65.93C209.085 65.92 209.265 65.75 209.295 65.42C209.305 65.34 209.325 65.06 209.355 64.58C209.375 64.26 209.385 64.005 209.385 63.815C209.385 63.175 209.26 62.77 209.01 62.6C208.92 62.54 208.875 62.47 208.875 62.39C208.875 62.33 208.895 62.285 208.935 62.255C208.985 62.215 209.05 62.195 209.13 62.195C209.28 62.195 209.515 62.275 209.835 62.435C210.165 62.595 210.385 62.76 210.495 62.93C210.595 63.09 210.645 63.23 210.645 63.35C210.645 63.42 210.63 63.52 210.6 63.65C210.57 63.77 210.545 63.88 210.525 63.98C210.465 64.2 210.395 64.625 210.315 65.255C210.295 65.435 210.33 65.575 210.42 65.675C210.51 65.765 210.645 65.805 210.825 65.795C212.325 65.665 213.24 65.445 213.57 65.135C213.64 65.065 213.74 65.03 213.87 65.03C214.03 65.03 214.215 65.085 214.425 65.195C214.635 65.295 214.81 65.42 214.95 65.57C215.1 65.72 215.175 65.855 215.175 65.975C215.175 66.065 215.135 66.135 215.055 66.185C214.985 66.235 214.92 66.395 214.86 66.665C214.81 66.925 214.75 67.35 214.68 67.94C214.52 69.24 214.325 70.375 214.095 71.345C213.875 72.305 213.52 73.125 213.03 73.805C212.87 74.015 212.68 74.12 212.46 74.12C212.32 74.12 212.19 74.065 212.07 73.955C211.96 73.835 211.88 73.66 211.83 73.43C211.79 73.24 211.605 73.04 211.275 72.83C210.945 72.61 210.645 72.435 210.375 72.305C210.105 72.165 209.935 72.075 209.865 72.035C209.725 71.955 209.655 71.865 209.655 71.765C209.655 71.725 209.67 71.69 209.7 71.66C209.73 71.63 209.77 71.615 209.82 71.615C209.9 71.615 209.99 71.65 210.09 71.72C210.79 72.15 211.355 72.365 211.785 72.365C212.175 72.365 212.49 72.205 212.73 71.885C213.02 71.505 213.255 70.87 213.435 69.98C213.615 69.08 213.705 68.245 213.705 67.475C213.705 66.755 213.625 66.35 213.465 66.26C213.285 66.17 213.055 66.125 212.775 66.125C212.585 66.125 212.17 66.165 211.53 66.245C211.41 66.255 211.275 66.27 211.125 66.29C210.975 66.31 210.805 66.33 210.615 66.35C210.465 66.36 210.335 66.45 210.225 66.62C210.115 66.78 210.02 67.025 209.94 67.355C209.64 68.535 209.215 69.615 208.665 70.595C208.125 71.575 207.545 72.395 206.925 73.055C206.305 73.705 205.72 74.18 205.17 74.48ZM222.42 74.48C222.34 74.5 222.235 74.51 222.105 74.51C221.915 74.51 221.82 74.47 221.82 74.39C221.82 74.3 221.96 74.22 222.24 74.15C223.68 73.8 224.755 73.21 225.465 72.38C226.175 71.55 226.625 70.64 226.815 69.65C227.015 68.66 227.115 67.495 227.115 66.155V64.745C227.115 64.235 227.055 63.845 226.935 63.575C226.825 63.305 226.68 63.075 226.5 62.885C226.41 62.765 226.35 62.675 226.32 62.615C226.29 62.555 226.29 62.48 226.32 62.39C226.35 62.31 226.445 62.27 226.605 62.27C226.815 62.27 227.055 62.33 227.325 62.45C227.605 62.57 227.835 62.74 228.015 62.96C228.205 63.17 228.28 63.4 228.24 63.65C228.21 63.85 228.18 64.225 228.15 64.775C228.12 65.325 228.105 65.755 228.105 66.065C228.105 67.435 228.015 68.62 227.835 69.62C227.665 70.62 227.16 71.59 226.32 72.53C225.49 73.47 224.19 74.12 222.42 74.48ZM222.12 69.605C222.12 69.525 222.14 69.315 222.18 68.975C222.19 68.925 222.21 68.735 222.24 68.405C222.28 68.065 222.3 67.66 222.3 67.19C222.3 66.27 222.265 65.495 222.195 64.865C222.125 64.225 221.965 63.815 221.715 63.635C221.515 63.495 221.415 63.36 221.415 63.23C221.415 63.16 221.44 63.105 221.49 63.065C221.55 63.025 221.63 63.005 221.73 63.005C221.8 63.005 221.85 63.01 221.88 63.02C222.22 63.09 222.55 63.26 222.87 63.53C223.19 63.79 223.335 64.065 223.305 64.355C223.275 64.615 223.245 65.01 223.215 65.54C223.195 66.07 223.185 66.6 223.185 67.13C223.185 67.78 223.195 68.325 223.215 68.765C223.225 68.895 223.23 69.1 223.23 69.38C223.23 69.59 223.15 69.785 222.99 69.965C222.83 70.145 222.665 70.235 222.495 70.235C222.385 70.235 222.295 70.185 222.225 70.085C222.155 69.975 222.12 69.815 222.12 69.605ZM235.2 69.29C234.97 69.29 234.735 69.215 234.495 69.065C234.255 68.905 234.05 68.72 233.88 68.51C233.72 68.3 233.64 68.125 233.64 67.985C233.64 67.865 233.705 67.805 233.835 67.805C233.915 67.805 234.055 67.835 234.255 67.895C234.695 68.025 235.395 68.12 236.355 68.18C237.325 68.24 238.27 68.27 239.19 68.27L239.925 68.255C241.135 68.225 242.07 68.165 242.73 68.075C243.4 67.975 244 67.865 244.53 67.745C244.73 67.695 244.86 67.67 244.92 67.67C245.13 67.67 245.345 67.735 245.565 67.865C245.795 67.995 245.985 68.15 246.135 68.33C246.285 68.51 246.36 68.665 246.36 68.795C246.36 68.985 246.19 69.065 245.85 69.035C244.35 68.915 242.855 68.855 241.365 68.855C240.825 68.855 239.805 68.9 238.305 68.99C236.815 69.08 235.855 69.17 235.425 69.26C235.325 69.28 235.25 69.29 235.2 69.29Z" fill="#3D1C00"/>
</svg>
