<svg width="320" height="320" viewBox="0 0 320 320" fill="none" xmlns="http://www.w3.org/2000/svg">
<g clip-path="url(#clip0_32634_5)">
<path d="M311.34 69.6784L284.849 58.3516C269.861 51.9464 252.956 53.2967 238.753 59.44L250.125 29.5516C252.607 22.927 252.04 15.914 248.512 10.7712C245.506 6.45988 240.668 3.88721 235.485 3.88721C231.781 3.88721 228.165 5.19505 225.028 7.63432L181.892 41.0099C181.762 41.1408 181.588 41.2293 181.457 41.4008H131.7C131.569 41.2293 131.395 41.1408 131.264 41.0099L88.174 7.63432C84.9936 5.19443 81.3755 3.88721 77.6739 3.88721C72.488 3.88721 67.6525 6.45988 64.6465 10.7712C61.1164 15.914 60.5491 22.927 63.0769 29.5516L73.3177 56.5644C60.9854 53.0348 47.4787 53.1221 35.192 58.351L8.70097 69.6778C0.161328 73.3364 -2.14704 82.4002 3.51759 89.9369L21.1641 113.465C32.0121 127.931 49.092 135.556 65.6471 136.645L72.5765 212.936C69.0463 217.164 66.5185 222.131 65.2992 227.534L62.4236 240.342L61.4636 244.483C59.3721 253.632 61.0303 263.044 66.1707 271.017C68.7409 275.069 72.1401 278.599 76.1036 281.431C75.9727 283.913 76.409 286.398 77.4114 288.706L83.8166 303.389C87.9116 312.798 99.3717 316.112 108.78 316.112H204.417C213.786 316.112 225.289 312.798 229.383 303.389L235.788 288.706C236.79 286.398 237.228 283.913 237.096 281.471C240.972 278.641 244.371 275.111 246.987 271.016C252.127 263.043 253.783 253.632 251.734 244.525L250.777 240.299L247.813 227.534C246.593 222.131 244.109 217.25 240.624 213.024L247.551 136.733C266.069 137.56 286.46 129.937 298.835 113.465L316.48 89.9369C322.145 82.4009 319.838 73.337 311.34 69.6784ZM217.403 298.161C216.14 300.994 210.737 303.042 204.418 303.042H108.782C102.464 303.042 97.0621 300.994 95.7992 298.161L91.4399 288.228C94.4913 288.926 97.6712 289.274 100.897 289.274H212.305C215.53 289.274 218.71 288.926 221.716 288.271L217.403 298.161ZM102.333 276.201H100.897C96.19 276.201 91.8332 275.157 88.0001 273.327C85.8208 272.323 83.8602 271.062 82.1167 269.578C80.1561 267.923 78.4574 266.051 77.1502 263.959L75.9309 250.408L75.2327 242.828L78.0647 230.453C80.5919 219.215 91.7902 211.154 104.73 211.154H119.151H194.048H208.427C221.412 211.154 232.522 219.215 235.092 230.453L237.924 242.828L237.271 250.322L236.052 263.873C236.007 263.916 236.007 263.959 235.964 264.002C234.656 266.05 233 267.923 231.04 269.535C229.298 271.063 227.339 272.323 225.159 273.327C221.369 275.157 217.01 276.201 212.305 276.201H210.823H102.333ZM146.166 146.276V50.9864H166.993V146.277C166.993 164.882 172.57 183.005 182.984 198.083H130.218C140.587 183.004 146.166 164.881 146.166 146.276ZM235.485 16.9575C238.055 16.9575 239.537 20.5762 237.881 24.933L227.076 53.2967C219.188 48.1108 210.301 44.5831 200.978 42.7965L233.001 17.9606C233.915 17.2649 234.744 16.9575 235.485 16.9575ZM215.225 123.313C215.225 123.313 215.268 123.313 215.268 123.359C217.664 124.405 219.668 126.146 221.019 128.368C222.195 130.286 222.893 132.551 222.893 134.947V141.134C222.893 148.106 217.229 153.768 210.259 153.768H205.204C198.188 153.768 192.524 148.106 192.524 141.134V134.947C192.524 127.975 198.188 122.313 205.204 122.313H210.259C212 122.313 213.698 122.66 215.225 123.313ZM120.633 141.134C120.633 148.107 114.97 153.769 107.998 153.769H102.943C95.9731 153.769 90.3085 148.107 90.3085 141.134V134.948C90.3085 134.295 90.3515 133.64 90.4824 132.987C91.3969 126.932 96.6258 122.313 102.943 122.313H105.645H107.998C114.97 122.313 120.633 127.975 120.633 134.948V141.134ZM86.0826 53.2967L75.2776 24.933C73.6219 20.5762 75.1037 16.9575 77.6739 16.9575C78.4151 16.9575 79.2865 17.2649 80.1561 17.9606L112.224 42.7965C102.858 44.5831 93.9677 48.1108 86.0826 53.2967ZM251.474 93.2514C251.562 92.2053 251.607 91.1599 251.607 90.1139C251.607 85.888 250.821 81.6597 249.254 77.7393C254.437 75.6908 262.107 74.1679 270.34 77.6532L280.754 82.0954C286.114 84.4032 287.596 90.1563 284.023 94.9488L277.095 104.144C271.91 111.071 264.983 113.727 260.101 114.73C256.528 115.469 252.87 115.601 249.513 115.078L251.474 93.2514ZM61.683 93.2514L63.6865 115.252C62.4236 115.166 61.1594 114.993 59.8964 114.73C55.0179 113.727 48.1339 111.071 42.948 104.144L36.0211 94.9494C32.4024 90.1569 33.8841 84.4038 39.2863 82.096L49.6581 77.6539C55.0602 75.343 60.2443 75.2121 64.6459 75.9982C62.5975 80.4428 61.5515 85.2354 61.5515 90.1145C61.5521 91.1599 61.5951 92.206 61.683 93.2514Z" fill="#4E301B"/>
<path d="M106.735 130.155H104.208C100.721 130.155 97.8906 132.987 97.8906 136.515V139.566C97.8906 143.094 100.72 145.884 104.208 145.884H106.735C110.22 145.884 113.052 143.095 113.052 139.566V136.515C113.053 132.987 110.22 130.155 106.735 130.155ZM102.379 136.689C102.379 134.947 103.815 133.554 105.559 133.554H106.822C107.606 133.554 108.304 133.816 108.825 134.295L103.032 140.088C102.596 139.609 102.38 138.954 102.38 138.259V136.689H102.379Z" fill="#4E301B"/>
<path d="M200.149 136.515V139.566C200.149 143.094 202.939 145.884 206.467 145.884H208.994C212.478 145.884 215.311 143.095 215.311 139.566V136.515C215.311 132.987 212.479 130.155 208.994 130.155H206.467C202.939 130.155 200.149 132.987 200.149 136.515ZM203.76 136.689C203.76 134.947 205.199 133.554 206.943 133.554H208.206C208.989 133.554 209.688 133.816 210.211 134.295L204.416 140.088C203.98 139.609 203.761 138.954 203.761 138.259V136.689H203.76Z" fill="#4E301B"/>
<path d="M136.362 240.214L123.465 235.333L123.074 224.571C123.029 223.263 122.071 222.174 120.764 221.913L120.416 221.87L118.718 221.957C117.279 222 116.06 223.089 115.886 224.528L113.489 247.444C113.314 248.882 114.23 250.19 115.624 250.538L135.142 255.419C136.014 255.593 136.929 255.331 137.582 254.764C138.28 254.155 138.63 253.328 138.585 252.413L137.758 242.48C137.712 241.52 137.191 240.69 136.362 240.214Z" fill="#4E301B"/>
<path d="M194.442 221.958L192.787 221.87L192.394 221.913C191.089 222.175 190.129 223.263 190.086 224.571L189.735 235.334L176.796 240.215C175.969 240.691 175.488 241.52 175.402 242.48L174.618 252.413C174.53 253.328 174.878 254.155 175.576 254.765C176.228 255.331 177.143 255.594 178.015 255.419L197.534 250.538C198.93 250.19 199.844 248.882 199.714 247.444L197.274 224.528C197.1 223.09 195.88 222.001 194.442 221.958Z" fill="#4E301B"/>
</g>
<defs>
<clipPath id="clip0_32634_5">
<rect width="319.169" height="319.169" fill="white" transform="translate(0.415649 0.415649)"/>
</clipPath>
</defs>
</svg>
