<?xml version="1.0" standalone="no"?>
<!DOCTYPE svg PUBLIC "-//W3C//DTD SVG 20010904//EN"
 "http://www.w3.org/TR/2001/REC-SVG-20010904/DTD/svg10.dtd">
<svg version="1.0" xmlns="http://www.w3.org/2000/svg"
 width="700.000000pt" height="700.000000pt" viewBox="0 0 700.000000 700.000000"
 preserveAspectRatio="xMidYMid meet">
<metadata>
Created by potrace 1.14, written by Peter Selinger 2001-2017
</metadata>
<g transform="translate(0.000000,700.000000) scale(0.100000,-0.100000)"
fill="#000000" stroke="none">
<path d="M2710 5971 c0 -4 -33 -7 -72 -8 -64 -2 -132 -11 -205 -28 -37 -8 -77
-16 -96 -19 -10 -1 -22 -7 -25 -12 -4 -5 -11 -9 -17 -10 -24 -1 -71 -18 -77
-28 -5 -7 -8 -6 -8 4 0 12 -2 12 -9 2 -7 -12 -25 -18 -54 -21 -5 -1 -6 -5 -3
-10 4 -5 -3 -7 -14 -4 -11 3 -20 0 -20 -6 0 -6 -3 -10 -7 -9 -12 2 -45 -13
-75 -34 -16 -11 -32 -16 -38 -13 -5 3 -10 1 -10 -5 0 -6 -3 -9 -7 -7 -11 7
-33 -19 -25 -27 3 -4 -1 -4 -11 0 -10 3 -17 1 -17 -6 0 -6 -4 -8 -10 -5 -5 3
-10 1 -10 -5 0 -6 -4 -9 -9 -6 -5 3 -11 -1 -15 -9 -3 -8 -13 -15 -21 -15 -9 0
-13 -4 -10 -10 3 -5 -3 -10 -14 -10 -11 0 -25 -9 -31 -20 -6 -11 -17 -20 -25
-20 -8 0 -15 -4 -15 -10 0 -5 -5 -10 -10 -10 -6 0 -26 -16 -45 -35 -20 -19
-38 -34 -42 -34 -4 0 -10 -8 -14 -18 -4 -10 -8 -14 -8 -10 -1 6 -54 -47 -153
-153 -13 -14 -32 -40 -43 -58 -12 -18 -24 -30 -28 -27 -4 3 -5 2 -2 -1 2 -4
-6 -21 -18 -38 -12 -17 -21 -32 -19 -33 7 -8 1 -23 -7 -18 -5 3 -12 1 -16 -5
-3 -5 -17 -10 -31 -10 -13 0 -24 -5 -24 -11 0 -5 -4 -7 -10 -4 -5 3 -10 1 -10
-4 0 -6 -3 -10 -7 -10 -22 4 -33 -2 -27 -13 4 -7 4 -10 -1 -6 -4 4 -15 2 -23
-5 -9 -6 -13 -7 -9 -1 3 6 0 11 -8 11 -8 0 -12 -4 -9 -8 2 -4 -4 -10 -15 -14
-11 -3 -22 -13 -25 -21 -3 -8 -11 -12 -16 -9 -6 4 -22 -1 -36 -10 -13 -9 -29
-13 -34 -10 -5 3 -15 -4 -23 -15 -7 -11 -16 -17 -20 -14 -3 3 -11 -3 -18 -14
-7 -11 -19 -18 -26 -15 -7 3 -13 0 -13 -7 0 -7 -7 -10 -16 -6 -8 3 -13 2 -10
-3 3 -5 -10 -16 -29 -25 -19 -9 -35 -21 -35 -27 0 -6 -4 -7 -10 -4 -5 3 -10
-1 -10 -10 0 -9 -4 -14 -9 -10 -5 3 -17 -2 -25 -11 -9 -8 -16 -13 -16 -9 0 3
-6 0 -14 -7 -8 -7 -11 -17 -8 -22 3 -5 0 -6 -6 -2 -7 4 -23 -4 -36 -17 -14
-14 -45 -40 -70 -57 -25 -18 -43 -37 -40 -41 3 -5 -1 -9 -9 -9 -8 0 -25 -13
-38 -29 -13 -16 -27 -27 -31 -25 -4 3 -5 -2 -2 -11 4 -9 3 -15 -2 -13 -5 2 -9
0 -9 -3 0 -4 -18 -22 -40 -40 -41 -34 -45 -40 -45 -60 0 -5 -5 -7 -10 -4 -6 3
-10 -1 -10 -10 0 -10 -5 -13 -12 -9 -7 5 -9 2 -5 -9 4 -12 2 -14 -10 -10 -10
4 -14 2 -10 -4 4 -6 -4 -22 -18 -37 -13 -14 -22 -26 -20 -26 3 0 -4 -10 -15
-22 -10 -13 -18 -25 -17 -28 3 -9 -28 -38 -35 -33 -4 2 -5 -3 -2 -11 3 -9 1
-16 -5 -16 -6 0 -11 -7 -11 -16 0 -8 -7 -22 -15 -31 -8 -8 -13 -19 -10 -24 4
-5 -1 -9 -9 -9 -9 0 -15 -3 -14 -7 4 -10 -53 -126 -65 -134 -5 -3 -8 -9 -8
-13 4 -25 0 -36 -11 -30 -8 5 -9 2 -5 -9 3 -9 -1 -23 -9 -32 -9 -9 -11 -15 -4
-15 7 0 5 -6 -4 -16 -9 -8 -16 -24 -16 -35 0 -10 -6 -19 -12 -19 -10 0 -9 -3
1 -9 11 -7 10 -11 -5 -20 -14 -8 -15 -11 -4 -11 13 0 13 -1 0 -10 -8 -5 -10
-10 -5 -10 6 0 4 -4 -4 -9 -13 -8 -13 -12 0 -27 8 -10 9 -15 2 -11 -7 5 -16
-6 -24 -30 -10 -32 -14 -53 -21 -109 -1 -6 -8 -11 -17 -10 -14 1 -16 -29 -19
-263 -2 -236 -1 -263 13 -257 9 3 13 2 10 -4 -3 -6 1 -10 10 -10 11 0 15 -5
11 -15 -3 -8 0 -15 7 -15 8 0 8 -3 -2 -9 -10 -6 -10 -10 -1 -16 6 -4 9 -13 6
-20 -2 -7 -2 -16 2 -19 3 -4 8 -19 10 -34 2 -15 8 -30 14 -33 7 -4 5 -9 -3
-12 -10 -4 -9 -6 4 -6 9 -1 17 -6 17 -12 0 -5 -6 -7 -12 -3 -7 4 -5 -2 4 -13
21 -23 23 -37 6 -28 -7 4 -3 -2 10 -13 15 -14 18 -22 10 -25 -10 -4 -10 -6 0
-6 6 -1 12 -7 12 -14 0 -18 23 -67 32 -67 4 0 5 -9 3 -20 -2 -11 0 -18 6 -15
9 6 13 -7 10 -32 -1 -7 5 -13 14 -13 8 0 15 -9 15 -20 0 -11 5 -20 11 -20 5 0
7 -4 4 -10 -3 -5 -2 -10 4 -10 6 0 13 -11 17 -25 3 -14 10 -22 15 -19 5 3 8 2
7 -3 -4 -14 13 -53 23 -53 6 0 7 -4 4 -10 -3 -5 1 -10 9 -10 9 0 18 0 21 0 3
0 5 3 4 6 0 4 5 11 13 15 11 8 11 10 0 18 -11 7 -11 9 2 14 9 4 16 2 16 -4 0
-6 5 -7 10 -4 6 4 8 10 5 15 -3 5 -1 11 3 14 11 7 9 -55 -3 -73 -5 -9 -4 -12
2 -8 6 4 10 -9 11 -30 1 -19 7 -42 14 -51 7 -9 8 -13 2 -9 -8 4 -11 -28 -10
-108 0 -76 3 -112 11 -108 5 3 4 0 -2 -8 -7 -7 -13 -17 -13 -22 0 -4 6 -5 13
-1 8 5 8 2 -2 -9 -8 -10 -9 -17 -3 -17 6 0 11 -8 10 -17 0 -28 10 -64 23 -79
6 -8 8 -14 3 -14 -5 0 -4 -4 1 -8 17 -12 36 -52 30 -62 -4 -6 1 -10 10 -10 9
0 14 -4 10 -9 -3 -5 2 -16 10 -24 8 -9 15 -20 15 -26 0 -6 5 -11 11 -11 5 0 8
-4 4 -9 -3 -5 1 -15 8 -23 7 -7 16 -21 20 -31 4 -11 12 -15 18 -11 8 4 9 3 5
-4 -4 -6 2 -19 14 -29 11 -10 20 -26 20 -36 0 -10 4 -15 10 -12 6 3 10 -1 10
-9 0 -8 9 -20 20 -26 11 -6 20 -17 20 -25 0 -8 5 -15 10 -15 13 0 56 -43 53
-52 -2 -5 5 -8 15 -8 11 0 27 -9 37 -20 10 -11 22 -20 27 -20 10 0 70 -40 79
-53 3 -5 8 -8 10 -6 9 5 49 -13 49 -22 0 -5 3 -8 8 -7 4 0 16 -3 27 -7 92 -38
123 -48 143 -47 12 1 22 -3 22 -9 0 -6 10 -9 23 -8 12 2 28 0 35 -4 6 -5 12
-6 12 -3 0 3 11 1 25 -4 16 -6 26 -6 31 1 4 6 11 6 20 -2 8 -6 14 -8 14 -5 0
4 9 2 20 -4 15 -8 20 -8 20 1 0 8 4 8 13 2 6 -5 24 -8 40 -7 15 2 25 -1 22 -6
-3 -5 10 -8 29 -6 19 1 33 -1 30 -5 -4 -6 3 -10 31 -20 6 -2 20 -12 32 -24 38
-35 53 -46 53 -39 0 4 8 -3 19 -14 10 -12 21 -19 25 -15 3 3 6 1 6 -6 0 -7 4
-9 10 -6 5 3 10 1 10 -6 0 -7 3 -9 7 -6 3 4 15 0 25 -10 10 -9 18 -13 18 -8 0
4 7 2 15 -5 8 -6 19 -9 25 -5 5 3 10 2 10 -2 0 -5 14 -14 30 -20 19 -7 28 -8
24 -1 -4 5 5 2 20 -7 18 -12 26 -14 26 -5 0 9 3 10 13 1 8 -6 17 -8 20 -4 4 3
7 1 7 -5 0 -14 42 -12 52 3 5 7 8 7 8 -1 0 -12 49 -13 69 0 9 6 12 5 8 -1 -4
-6 6 -10 24 -11 19 0 27 3 23 10 -5 7 -2 8 7 2 21 -13 47 -15 54 -4 3 5 13 6
22 3 10 -4 14 -2 10 4 -5 7 0 9 13 6 11 -3 20 -8 20 -12 0 -4 9 -8 20 -9 43
-4 49 -6 44 -14 -3 -4 2 -8 11 -8 9 0 13 -4 10 -10 -3 -6 1 -7 10 -4 8 4 23 0
32 -7 15 -12 16 -12 10 6 -6 17 -5 17 11 -3 14 -18 20 -20 31 -10 11 11 13 10
6 -2 -6 -12 -5 -13 5 -3 11 10 16 9 26 -5 8 -9 14 -12 14 -7 0 14 70 7 89 -9
11 -8 13 -8 7 2 -8 13 19 13 42 -1 6 -5 12 -4 12 2 0 11 19 9 40 -4 13 -8 13
-7 1 8 -16 20 -2 23 18 4 10 -8 12 -8 7 0 -10 18 13 26 31 11 12 -9 15 -9 9 0
-4 7 -2 12 4 12 6 0 9 3 6 8 -2 4 7 12 20 19 16 7 22 8 17 0 -4 -6 0 -8 10 -4
9 3 19 2 23 -4 3 -6 13 -8 21 -5 8 3 11 1 8 -4 -6 -9 8 -14 28 -11 4 0 7 -4 7
-10 0 -5 5 -7 10 -4 6 3 10 2 10 -4 0 -6 7 -7 17 -4 12 5 14 3 8 -7 -6 -10 -4
-12 8 -7 9 3 19 2 22 -4 4 -5 11 -7 16 -4 5 4 9 1 9 -5 0 -7 7 -10 15 -7 8 4
16 3 19 -1 8 -13 228 -6 236 8 6 10 9 9 12 -1 3 -10 10 -7 23 8 15 18 22 20
34 10 12 -10 13 -9 6 2 -6 11 -4 13 8 8 11 -4 17 -1 17 9 0 8 5 12 10 9 6 -3
10 2 10 12 0 15 2 16 10 3 8 -13 10 -12 10 3 0 9 5 17 11 17 5 0 7 -6 3 -13
-4 -6 13 9 38 35 25 26 49 44 52 40 4 -3 4 2 0 12 -5 14 -4 17 4 12 7 -4 12
-1 12 7 0 8 7 17 15 21 8 3 15 12 15 21 0 8 4 15 10 15 5 0 9 3 8 8 -1 4 5 21
12 37 7 17 13 46 14 67 1 20 5 34 9 31 4 -2 7 11 5 31 -1 20 -5 36 -8 36 -3 0
-6 19 -7 42 -1 22 -5 44 -10 47 -4 3 -9 13 -11 21 -2 8 -8 17 -13 18 -5 2 -7
8 -3 13 3 5 0 9 -7 9 -7 0 -9 3 -6 6 3 4 -7 19 -23 34 -16 15 -26 30 -23 34 3
3 -1 6 -11 6 -9 0 -21 10 -26 23 -5 12 -9 15 -9 7 -1 -10 -6 -7 -17 8 -8 12
-24 22 -35 22 -11 0 -18 4 -15 8 2 4 -8 13 -22 20 -25 11 -58 52 -62 77 -1 6
-8 14 -16 18 -8 5 -12 12 -9 18 4 5 -1 12 -9 15 -9 3 -16 12 -16 18 0 7 -9 22
-20 34 -12 12 -18 22 -15 22 4 0 -1 7 -9 16 -9 8 -16 22 -16 30 0 9 -5 12 -12
8 -7 -5 -9 -2 -5 8 3 9 -2 23 -13 33 -11 10 -17 22 -14 26 3 5 1 9 -4 9 -5 0
-13 15 -17 33 -12 49 -13 107 -2 107 5 0 3 8 -4 17 -9 10 -9 14 -2 10 7 -5 16
1 23 13 6 11 7 20 3 20 -4 0 4 8 17 17 14 10 29 17 33 15 5 -1 6 2 3 7 -4 5 7
29 24 54 31 47 54 97 51 111 -1 4 2 13 7 20 5 6 10 59 11 117 1 84 -2 108 -13
112 -9 4 -12 14 -9 27 4 16 8 18 19 9 11 -9 14 -8 14 2 0 9 3 10 8 4 8 -12 22
-13 40 -2 7 5 12 4 12 -3 0 -8 6 -8 20 0 11 6 25 8 30 5 6 -3 10 -1 10 6 0 7
3 9 7 6 3 -4 13 -1 21 6 13 9 14 9 8 0 -4 -7 -3 -13 2 -13 6 0 12 6 15 13 3 8
18 13 36 12 16 -1 28 1 26 5 -2 4 14 13 36 20 23 8 43 20 46 27 4 10 9 11 19
2 12 -10 13 -8 8 6 -5 12 -4 16 3 12 6 -4 19 0 27 9 9 8 16 13 16 10 0 -3 10
4 23 17 12 12 21 25 20 28 -1 4 7 4 19 1 12 -3 19 -1 16 4 -3 5 4 18 15 29 11
11 17 13 12 5 -4 -8 7 1 26 20 18 19 32 38 31 43 -1 4 4 6 10 5 7 -2 12 3 10
10 -1 6 2 12 6 12 5 0 19 9 32 20 13 11 18 20 11 20 -8 0 -9 5 -2 19 6 10 7
21 4 25 -3 3 1 6 10 6 9 0 17 6 17 13 0 8 2 9 8 1 4 -6 23 -15 42 -20 50 -11
49 -11 55 -14 13 -6 162 -4 158 3 -4 6 31 11 41 5 2 -2 14 6 27 17 13 12 19
14 14 5 -8 -13 -7 -13 9 0 10 8 25 15 34 16 8 2 18 8 22 14 4 7 10 10 13 8 3
-1 18 8 34 22 15 13 30 24 33 25 3 0 3 4 2 10 -2 5 0 7 4 3 3 -4 18 1 32 12
13 11 28 17 33 14 5 -3 9 1 9 8 0 8 3 9 8 3 4 -5 12 -11 17 -12 72 -12 105
-16 132 -17 18 -1 35 -5 39 -9 4 -4 13 -2 20 4 8 6 21 9 29 5 8 -3 15 0 15 6
0 6 3 8 7 5 3 -4 13 -1 21 6 13 10 14 9 8 -1 -7 -11 -4 -12 13 -3 11 7 21 9
21 5 0 -3 7 -1 15 6 8 7 15 9 15 5 0 -4 8 -1 17 6 13 11 15 11 9 1 -7 -11 -4
-11 15 0 13 7 33 20 43 28 12 9 16 10 12 3 -10 -17 2 -16 19 1 8 7 11 17 7 21
-4 5 0 6 9 2 11 -3 16 0 15 11 0 10 4 17 9 17 6 0 9 -3 8 -7 -2 -5 1 -8 6 -8
4 0 6 -12 3 -26 -3 -19 -1 -25 7 -20 6 4 11 1 11 -6 0 -8 12 -14 28 -14 38 -1
92 -15 92 -24 0 -4 14 -6 30 -5 17 1 30 0 30 -4 0 -3 10 -7 23 -8 74 -7 134
-17 151 -25 14 -7 16 -7 11 2 -6 9 -3 9 12 1 14 -7 23 -7 31 1 8 8 12 8 12 2
0 -15 35 -11 55 6 9 7 15 9 14 4 -4 -21 2 -26 16 -14 11 9 15 9 15 1 0 -7 3
-10 8 -8 11 7 72 -29 64 -38 -4 -5 2 -5 13 -1 11 4 16 4 13 0 -8 -8 34 -44 51
-44 6 0 11 -4 11 -10 0 -5 7 -10 15 -10 8 0 15 -4 15 -10 0 -5 6 -10 14 -10 8
0 17 -7 20 -16 3 -8 10 -12 16 -9 5 3 10 1 10 -4 0 -6 7 -11 15 -11 8 0 15 -4
15 -10 0 -5 7 -10 15 -10 9 0 18 -6 21 -14 3 -9 12 -12 21 -9 11 4 14 2 9 -5
-6 -11 0 -14 20 -11 4 0 10 -3 13 -8 9 -13 89 -53 106 -53 8 0 15 -4 15 -10 0
-5 9 -10 21 -10 11 0 18 -4 15 -9 -3 -5 1 -12 10 -15 10 -4 13 -2 8 6 -4 6 5
3 19 -8 15 -10 27 -22 27 -26 0 -5 5 -8 11 -8 5 0 7 6 4 13 -4 6 3 1 14 -12
12 -13 21 -18 21 -12 0 7 5 9 10 6 6 -4 8 -10 5 -15 -3 -4 3 -7 12 -6 10 2 21
-2 25 -8 4 -6 13 -11 20 -11 23 -2 68 -17 68 -24 0 -4 8 -7 18 -8 47 -2 82 -8
82 -13 0 -4 10 -6 23 -5 12 1 30 -2 41 -7 14 -7 16 -7 11 2 -5 9 -1 10 14 5
13 -4 21 -2 21 5 0 8 6 8 21 -1 16 -8 20 -8 14 1 -5 8 2 11 24 8 20 -2 35 3
41 12 5 8 10 10 10 4 0 -15 40 -11 50 6 4 7 15 10 23 7 9 -3 18 1 21 9 3 9 10
12 16 9 5 -3 10 -1 10 5 0 7 7 9 16 6 8 -3 12 -2 9 4 -6 9 8 14 28 11 4 0 7 7
7 16 0 9 3 14 6 10 3 -3 27 14 52 38 25 25 43 47 39 51 -4 4 1 14 11 23 9 9
18 25 20 35 2 10 10 25 18 33 17 18 18 27 2 17 -10 -6 -10 -4 0 7 14 15 17
224 4 233 -5 3 -6 26 -2 50 4 28 3 50 -4 57 -8 9 -8 10 1 5 15 -8 16 223 1
242 -7 8 -7 12 2 12 10 0 10 3 0 15 -6 8 -9 19 -5 26 4 6 2 14 -4 18 -6 4 -12
26 -13 50 -1 23 -5 44 -10 47 -5 3 -6 14 -3 25 4 11 2 19 -5 19 -6 0 -8 5 -5
10 3 6 1 10 -5 10 -6 0 -9 4 -6 9 3 5 -1 14 -9 21 -8 7 -15 22 -15 34 -1 25
-24 59 -34 49 -4 -4 -4 0 0 10 4 10 1 17 -6 17 -7 0 -10 7 -7 14 4 9 -2 17
-14 21 -10 4 -17 11 -14 16 4 5 1 9 -5 9 -6 0 -8 5 -5 10 3 6 1 10 -4 10 -6 0
-11 7 -11 17 0 9 -3 14 -6 10 -9 -9 -34 19 -34 38 0 9 -4 14 -8 11 -5 -3 -24
12 -43 33 -34 36 -65 56 -82 52 -5 -1 -6 3 -3 8 4 5 -1 17 -10 25 -8 9 -11 16
-6 16 5 0 3 20 -6 45 -8 25 -18 45 -22 45 -5 0 -6 9 -3 20 3 11 0 20 -6 20 -6
0 -10 3 -9 8 3 14 -14 62 -23 62 -5 0 -8 3 -7 8 1 4 -3 17 -10 28 -6 12 -8 24
-5 28 3 3 2 6 -4 6 -11 0 -38 50 -34 63 1 5 -2 6 -6 4 -5 -3 -17 7 -28 22 -19
26 -19 26 0 11 11 -8 5 2 -12 23 -18 21 -33 41 -33 45 0 4 -23 32 -50 62 -28
30 -50 58 -50 63 0 4 -4 5 -10 2 -5 -3 -10 -1 -10 5 0 6 -6 18 -14 26 -11 11
-16 11 -19 1 -4 -8 -6 -7 -6 3 -1 16 -35 50 -49 50 -4 0 -13 9 -20 20 -7 12
-17 18 -22 15 -6 -3 -10 -2 -10 3 0 12 -50 45 -67 45 -7 0 -10 4 -7 8 3 5 -7
11 -21 15 -14 3 -25 14 -26 23 0 10 -2 11 -6 3 -3 -8 -11 -5 -25 10 -11 13
-17 17 -13 11 3 -7 1 -13 -4 -13 -6 0 -11 5 -11 10 0 6 -7 10 -15 10 -8 0 -15
5 -15 10 0 6 -3 9 -7 8 -5 -1 -18 3 -29 10 -12 6 -24 8 -28 5 -3 -3 -6 -1 -6
6 0 7 -4 10 -8 7 -5 -3 -20 1 -35 9 -14 7 -28 11 -31 7 -3 -3 -6 0 -6 6 0 7
-3 11 -7 11 -24 -4 -53 3 -65 14 -7 7 -30 12 -50 11 -21 -1 -38 2 -38 6 0 3
-6 7 -12 8 -7 0 -30 2 -50 3 -21 1 -38 6 -38 11 0 5 -8 4 -19 -1 -10 -6 -21
-8 -24 -4 -9 8 -166 9 -180 1 -6 -4 -20 -2 -30 4 -29 15 -107 95 -100 102 4 3
-1 6 -11 6 -9 0 -15 4 -12 8 3 5 -6 15 -19 22 -14 7 -25 19 -25 26 0 7 -9 15
-19 19 -11 3 -23 15 -26 26 -4 13 -12 18 -21 15 -8 -3 -13 -2 -10 2 6 10 -29
42 -44 42 -6 0 -13 7 -17 16 -3 8 -11 13 -18 10 -8 -3 -16 2 -19 11 -4 9 -9
13 -12 10 -4 -3 -15 3 -27 14 -11 10 -27 19 -34 19 -7 0 -13 5 -13 10 0 6 -9
10 -21 10 -11 0 -18 3 -15 8 2 4 -7 12 -20 19 -13 6 -21 7 -18 1 3 -5 -3 -4
-14 3 -12 7 -18 18 -15 24 4 5 3 7 -2 3 -4 -4 -17 -3 -28 3 -15 9 -18 8 -11
-3 6 -10 5 -11 -8 -1 -8 7 -18 9 -22 5 -4 -4 -6 0 -4 8 1 8 -4 14 -12 15 -8 0
-25 6 -37 13 -13 7 -23 10 -23 6 0 -4 -10 1 -22 12 -12 10 -18 13 -14 7 4 -7
2 -13 -3 -13 -6 0 -11 4 -11 10 0 5 -7 7 -15 4 -8 -4 -15 -2 -15 4 0 5 -11 8
-25 7 -14 -2 -25 2 -25 8 0 5 -3 7 -6 4 -4 -3 -15 -2 -25 4 -13 7 -19 6 -19
-1 0 -7 -6 -8 -19 -1 -10 6 -21 7 -25 4 -3 -3 -6 -2 -6 3 0 10 -298 13 -315 3
-5 -3 -28 -5 -50 -5 -22 1 -42 -2 -45 -6 -3 -4 -21 -9 -40 -12 -19 -3 -44 -6
-54 -8 -11 -2 -31 -14 -45 -27 -22 -19 -27 -20 -29 -7 -2 9 -8 14 -13 10 -6
-3 -17 0 -26 8 -14 11 -16 11 -9 -2 4 -9 2 -8 -7 2 -8 10 -16 15 -19 13 -3 -3
-23 1 -46 9 -22 8 -43 12 -46 9 -3 -4 -6 -1 -6 7 0 10 -4 10 -17 -1 -11 -10
-14 -10 -9 -1 4 6 2 13 -3 13 -6 1 -14 2 -18 4 -5 1 -26 5 -48 9 -22 4 -47 10
-55 13 -8 4 -23 7 -32 7 -9 1 -20 4 -24 9 -11 11 -26 8 -18 -4 4 -7 -1 -7 -16
1 -12 6 -28 9 -36 6 -8 -3 -14 -1 -14 4 0 6 -26 10 -58 10 -32 0 -62 3 -66 7
-12 12 -496 26 -496 14z m635 -4711 c-3 -5 -14 -10 -23 -10 -15 0 -15 2 -2 10
20 13 33 13 25 0z m-595 -94 c0 -3 -4 -8 -10 -11 -5 -3 -10 -1 -10 4 0 6 5 11
10 11 6 0 10 -2 10 -4z m-105 -46 c4 0 3 4 0 10 -3 6 1 7 10 4 23 -9 12 -30
-13 -26 -12 2 -22 -1 -22 -6 0 -5 -7 -9 -15 -9 -8 0 -11 5 -8 10 4 6 0 8 -10
4 -11 -4 -14 -2 -10 9 3 7 9 14 15 14 5 0 6 6 1 13 -4 6 5 4 20 -5 14 -10 29
-18 32 -18z"/>
<path d="M3805 5840 c-3 -6 1 -7 9 -4 18 7 21 14 7 14 -6 0 -13 -4 -16 -10z"/>
</g>
</svg>
